<?xml version="1.0" encoding="utf-8"?>
<!DOCTYPE svg PUBLIC "-//W3C//DTD SVG 1.1//EN" "http://www.w3.org/Graphics/SVG/1.1/DTD/svg11.dtd">
<svg version="1.1" id="Layer_1" xmlns="http://www.w3.org/2000/svg" xmlns:xlink="http://www.w3.org/1999/xlink" x="0px"
     y="0px"
     width="1155px" height="1155px" viewBox="0 0 1155 1155" enable-background="new 0 0 1155 1155" xml:space="preserve">
<rect x="0" y="0" width="1155" height="1155" fill="none"/>
    <g transform="translate(70,70)"><g transform="translate(280,0) scale(0.35,0.35)"><g transform="" style="fill: rgb(248, 56, 153);">
<g>
	<path d="M100,34.375V0H34.375C24.87,0,16.764,3.353,10.059,10.059S0,24.87,0,34.375V100h100V34.375z"/>
</g>
</g></g>
        <g transform="translate(315,0) scale(0.35,0.35)"><g transform="" style="fill: rgb(248, 56, 153);">
<g>
	<path d="M100,34.375c0-9.505-3.354-17.611-10.059-24.316S75.131,0,65.625,0H0v100h100V34.375z"/>
</g>
</g></g>
        <g transform="translate(420,0) scale(0.35,0.35)"><g transform="" style="fill: rgb(248, 56, 153);">
<polygon points="100,100 50,0 50,0 0,100 "/>
</g></g>
        <g transform="translate(525,0) scale(0.35,0.35)"><g transform="" style="fill: rgb(248, 56, 153);">
<g>
	<path d="M100,34.375V0H34.375C24.87,0,16.764,3.353,10.059,10.059S0,24.87,0,34.375V100h100V34.375z"/>
</g>
</g></g>
        <g transform="translate(560,0) scale(0.35,0.35)"><g transform="" style="fill: rgb(248, 56, 153);">
<rect width="100" height="100"/>
</g></g>
        <g transform="translate(595,0) scale(0.35,0.35)"><g transform="" style="fill: rgb(248, 56, 153);">
<rect width="100" height="100"/>
</g></g>
        <g transform="translate(630,0) scale(0.35,0.35)"><g transform="" style="fill: rgb(248, 56, 153);">
<rect width="100" height="100"/>
</g></g>
        <g transform="translate(665,0) scale(0.35,0.35)"><g transform="" style="fill: rgb(248, 56, 153);">
<rect width="100" height="100"/>
</g></g>
        <g transform="translate(700,0) scale(0.35,0.35)"><g transform="" style="fill: rgb(248, 56, 153);">
<g>
	<path d="M100,34.375c0-9.505-3.354-17.611-10.059-24.316S75.131,0,65.625,0H0v100h100V34.375z"/>
</g>
</g></g>
        <g transform="translate(280,35) scale(0.35,0.35)"><g transform="" style="fill: rgb(248, 56, 153);">
<g>
	<path d="M100,0H0v65.625c0,9.506,3.353,17.611,10.059,24.316S24.87,100,34.375,100H100V0z"/>
</g>
</g></g>
        <g transform="translate(315,35) scale(0.35,0.35)"><g transform="" style="fill: rgb(248, 56, 153);">
<g>
	<path d="M100,0H0v100h65.625c9.506,0,17.611-3.354,24.316-10.059S100,75.131,100,65.625V0z"/>
</g>
</g></g>
        <g transform="translate(420,35) scale(0.35,0.35)"><g transform="" style="fill: rgb(248, 56, 153);">
<rect width="100" height="100"/>
</g></g>
        <g transform="translate(490,35) scale(0.35,0.35)"><g transform="" style="fill: rgb(248, 56, 153);">
<g>
	<path d="M100,34.375V0H34.375C24.87,0,16.764,3.353,10.059,10.059S0,24.87,0,34.375V100h100V34.375z"/>
</g>
</g></g>
        <g transform="translate(525,35) scale(0.35,0.35)"><g transform="" style="fill: rgb(248, 56, 153);">
<rect width="100" height="100"/>
</g></g>
        <g transform="translate(595,35) scale(0.35,0.35)"><g transform="" style="fill: rgb(248, 56, 153);">
<polygon points="0,-0.001 50,99.999 50,99.999 100,-0.001 "/>
</g></g>
        <g transform="translate(700,35) scale(0.35,0.35)"><g transform="" style="fill: rgb(248, 56, 153);">
<rect width="100" height="100"/>
</g></g>
        <g transform="translate(350,70) scale(0.35,0.35)"><g transform="" style="fill: rgb(248, 56, 153);">
<g>
	<path d="M100,34.375V0H34.375C24.87,0,16.764,3.353,10.059,10.059S0,24.87,0,34.375V100h100V34.375z"/>
</g>
</g></g>
        <g transform="translate(385,70) scale(0.35,0.35)"><g transform="" style="fill: rgb(248, 56, 153);">
<rect width="100" height="100"/>
</g></g>
        <g transform="translate(420,70) scale(0.35,0.35)"><g transform="" style="fill: rgb(248, 56, 153);">
<rect width="100" height="100"/>
</g></g>
        <g transform="translate(455,70) scale(0.35,0.35)"><g transform="" style="fill: rgb(248, 56, 153);">
<rect width="100" height="100"/>
</g></g>
        <g transform="translate(490,70) scale(0.35,0.35)"><g transform="" style="fill: rgb(248, 56, 153);">
<rect width="100" height="100"/>
</g></g>
        <g transform="translate(525,70) scale(0.35,0.35)"><g transform="" style="fill: rgb(248, 56, 153);">
<g>
	<path d="M100,0H0v100h65.625c9.506,0,17.611-3.354,24.316-10.059S100,75.131,100,65.625V0z"/>
</g>
</g></g>
        <g transform="translate(630,70) scale(0.35,0.35)"><g transform="" style="fill: rgb(248, 56, 153);">
<polygon points="99.999,49.999 99.998,49.999 49.999,0 0,49.999 -0.001,49.999 -0.001,50 0,50 49.999,99.999 99.998,50 99.999,50 
	99.998,50 "/>
</g></g>
        <g transform="translate(700,70) scale(0.35,0.35)"><g transform="" style="fill: rgb(248, 56, 153);">
<polygon points="0,-0.001 50,99.999 50,99.999 100,-0.001 "/>
</g></g>
        <g transform="translate(280,105) scale(0.35,0.35)"><g transform="" style="fill: rgb(248, 56, 153);">
<polygon points="100,100 0,50 0,50 100,0 "/>
</g></g>
        <g transform="translate(315,105) scale(0.35,0.35)"><g transform="" style="fill: rgb(248, 56, 153);">
<rect width="100" height="100"/>
</g></g>
        <g transform="translate(350,105) scale(0.35,0.35)"><g transform="" style="fill: rgb(248, 56, 153);">
<rect width="100" height="100"/>
</g></g>
        <g transform="translate(385,105) scale(0.35,0.35)"><g transform="" style="fill: rgb(248, 56, 153);">
<rect width="100" height="100"/>
</g></g>
        <g transform="translate(420,105) scale(0.35,0.35)"><g transform="" style="fill: rgb(248, 56, 153);">
<g>
	<path d="M100,0H0v100h65.625c9.506,0,17.611-3.354,24.316-10.059S100,75.131,100,65.625V0z"/>
</g>
</g></g>
        <g transform="translate(560,105) scale(0.35,0.35)"><g transform="" style="fill: rgb(248, 56, 153);">
<polygon points="100,100 0,50 0,50 100,0 "/>
</g></g>
        <g transform="translate(595,105) scale(0.35,0.35)"><g transform="" style="fill: rgb(248, 56, 153);">
<polygon points="0,100 100,50 100,50 0,0 "/>
</g></g>
        <g transform="translate(665,105) scale(0.35,0.35)"><g transform="" style="fill: rgb(248, 56, 153);">
<polygon points="100,100 50,0 50,0 0,100 "/>
</g></g>
        <g transform="translate(315,140) scale(0.35,0.35)"><g transform="" style="fill: rgb(248, 56, 153);">
<polygon points="0,-0.001 50,99.999 50,99.999 100,-0.001 "/>
</g></g>
        <g transform="translate(455,140) scale(0.35,0.35)"><g transform="" style="fill: rgb(248, 56, 153);">
<polygon points="99.999,49.999 99.998,49.999 49.999,0 0,49.999 -0.001,49.999 -0.001,50 0,50 49.999,99.999 99.998,50 99.999,50 
	99.998,50 "/>
</g></g>
        <g transform="translate(665,140) scale(0.35,0.35)"><g transform="" style="fill: rgb(248, 56, 153);">
<rect width="100" height="100"/>
</g></g>
        <g transform="translate(700,140) scale(0.35,0.35)"><g transform="" style="fill: rgb(248, 56, 153);">
<polygon points="0,100 100,50 100,50 0,0 "/>
</g></g>
        <g transform="translate(350,175) scale(0.35,0.35)"><g transform="" style="fill: rgb(248, 56, 153);">
<polygon points="100,100 50,0 50,0 0,100 "/>
</g></g>
        <g transform="translate(420,175) scale(0.35,0.35)"><g transform="" style="fill: rgb(248, 56, 153);">
<polygon points="100,100 50,0 50,0 0,100 "/>
</g></g>
        <g transform="translate(490,175) scale(0.35,0.35)"><g transform="" style="fill: rgb(248, 56, 153);">
<polygon points="100,100 50,0 50,0 0,100 "/>
</g></g>
        <g transform="translate(595,175) scale(0.35,0.35)"><g transform="" style="fill: rgb(248, 56, 153);">
<polygon points="100,100 0,50 0,50 100,0 "/>
</g></g>
        <g transform="translate(630,175) scale(0.35,0.35)"><g transform="" style="fill: rgb(248, 56, 153);">
<rect width="100" height="100"/>
</g></g>
        <g transform="translate(665,175) scale(0.35,0.35)"><g transform="" style="fill: rgb(248, 56, 153);">
<g>
	<path d="M100,0H0v100h65.625c9.506,0,17.611-3.354,24.316-10.059S100,75.131,100,65.625V0z"/>
</g>
</g></g>
        <g transform="translate(280,210) scale(0.35,0.35)"><g transform="" style="fill: rgb(248, 56, 153);">
<polygon points="100,100 50,0 50,0 0,100 "/>
</g></g>
        <g transform="translate(350,210) scale(0.35,0.35)"><g transform="" style="fill: rgb(248, 56, 153);">
<rect width="100" height="100"/>
</g></g>
        <g transform="translate(420,210) scale(0.35,0.35)"><g transform="" style="fill: rgb(248, 56, 153);">
<rect width="100" height="100"/>
</g></g>
        <g transform="translate(490,210) scale(0.35,0.35)"><g transform="" style="fill: rgb(248, 56, 153);">
<rect width="100" height="100"/>
</g></g>
        <g transform="translate(560,210) scale(0.35,0.35)"><g transform="" style="fill: rgb(248, 56, 153);">
<polygon points="99.999,49.999 99.998,49.999 49.999,0 0,49.999 -0.001,49.999 -0.001,50 0,50 49.999,99.999 99.998,50 99.999,50 
	99.998,50 "/>
</g></g>
        <g transform="translate(630,210) scale(0.35,0.35)"><g transform="" style="fill: rgb(248, 56, 153);">
<rect width="100" height="100"/>
</g></g>
        <g transform="translate(700,210) scale(0.35,0.35)"><g transform="" style="fill: rgb(248, 56, 153);">
<polygon points="100,100 50,0 50,0 0,100 "/>
</g></g>
        <g transform="translate(280,245) scale(0.35,0.35)"><g transform="" style="fill: rgb(248, 56, 153);">
<g>
	<path d="M100,0H0v65.625c0,9.506,3.353,17.611,10.059,24.316S24.87,100,34.375,100H100V0z"/>
</g>
</g></g>
        <g transform="translate(315,245) scale(0.35,0.35)"><g transform="" style="fill: rgb(248, 56, 153);">
<rect width="100" height="100"/>
</g></g>
        <g transform="translate(350,245) scale(0.35,0.35)"><g transform="" style="fill: rgb(248, 56, 153);">
<g>
	<path d="M100,0H0v100h65.625c9.506,0,17.611-3.354,24.316-10.059S100,75.131,100,65.625V0z"/>
</g>
</g></g>
        <g transform="translate(420,245) scale(0.35,0.35)"><g transform="" style="fill: rgb(248, 56, 153);">
<rect width="100" height="100"/>
</g></g>
        <g transform="translate(455,245) scale(0.35,0.35)"><g transform="" style="fill: rgb(248, 56, 153);">
<rect width="100" height="100"/>
</g></g>
        <g transform="translate(490,245) scale(0.35,0.35)"><g transform="" style="fill: rgb(248, 56, 153);">
<rect width="100" height="100"/>
</g></g>
        <g transform="translate(595,245) scale(0.35,0.35)"><g transform="" style="fill: rgb(248, 56, 153);">
<g>
	<path d="M100,34.375V0H34.375C24.87,0,16.764,3.353,10.059,10.059S0,24.87,0,34.375V100h100V34.375z"/>
</g>
</g></g>
        <g transform="translate(630,245) scale(0.35,0.35)"><g transform="" style="fill: rgb(248, 56, 153);">
<rect width="100" height="100"/>
</g></g>
        <g transform="translate(665,245) scale(0.35,0.35)"><g transform="" style="fill: rgb(248, 56, 153);">
<rect width="100" height="100"/>
</g></g>
        <g transform="translate(700,245) scale(0.35,0.35)"><g transform="" style="fill: rgb(248, 56, 153);">
<g>
	<path d="M100,0H0v100h65.625c9.506,0,17.611-3.354,24.316-10.059S100,75.131,100,65.625V0z"/>
</g>
</g></g>
        <g transform="translate(0,280) scale(0.35,0.35)"><g transform="" style="fill: rgb(248, 56, 153);">
<polygon points="100,100 50,0 50,0 0,100 "/>
</g></g>
        <g transform="translate(70,280) scale(0.35,0.35)"><g transform="" style="fill: rgb(248, 56, 153);">
<g>
	<path d="M100,34.375V0H34.375C24.87,0,16.764,3.353,10.059,10.059S0,24.87,0,34.375V100h100V34.375z"/>
</g>
</g></g>
        <g transform="translate(105,280) scale(0.35,0.35)"><g transform="" style="fill: rgb(248, 56, 153);">
<g>
	<path d="M100,34.375c0-9.505-3.354-17.611-10.059-24.316S75.131,0,65.625,0H0v100h100V34.375z"/>
</g>
</g></g>
        <g transform="translate(175,280) scale(0.35,0.35)"><g transform="" style="fill: rgb(248, 56, 153);">
<polygon points="100,100 0,50 0,50 100,0 "/>
</g></g>
        <g transform="translate(210,280) scale(0.35,0.35)"><g transform="" style="fill: rgb(248, 56, 153);">
<rect width="100" height="100"/>
</g></g>
        <g transform="translate(245,280) scale(0.35,0.35)"><g transform="" style="fill: rgb(248, 56, 153);">
<g>
	<path d="M100,34.375c0-9.505-3.354-17.611-10.059-24.316S75.131,0,65.625,0H0v100h100V34.375z"/>
</g>
</g></g>
        <g transform="translate(315,280) scale(0.35,0.35)"><g transform="" style="fill: rgb(248, 56, 153);">
<polygon points="0,-0.001 50,99.999 50,99.999 100,-0.001 "/>
</g></g>
        <g transform="translate(420,280) scale(0.35,0.35)"><g transform="" style="fill: rgb(248, 56, 153);">
<rect width="100" height="100"/>
</g></g>
        <g transform="translate(455,280) scale(0.35,0.35)"><g transform="" style="fill: rgb(248, 56, 153);">
<rect width="100" height="100"/>
</g></g>
        <g transform="translate(490,280) scale(0.35,0.35)"><g transform="" style="fill: rgb(248, 56, 153);">
<g>
	<path d="M100,0H0v100h65.625c9.506,0,17.611-3.354,24.316-10.059S100,75.131,100,65.625V0z"/>
</g>
</g></g>
        <g transform="translate(560,280) scale(0.35,0.35)"><g transform="" style="fill: rgb(248, 56, 153);">
<g>
	<path d="M100,34.375V0H34.375C24.87,0,16.764,3.353,10.059,10.059S0,24.87,0,34.375V100h100V34.375z"/>
</g>
</g></g>
        <g transform="translate(595,280) scale(0.35,0.35)"><g transform="" style="fill: rgb(248, 56, 153);">
<rect width="100" height="100"/>
</g></g>
        <g transform="translate(665,280) scale(0.35,0.35)"><g transform="" style="fill: rgb(248, 56, 153);">
<rect width="100" height="100"/>
</g></g>
        <g transform="translate(770,280) scale(0.35,0.35)"><g transform="" style="fill: rgb(248, 56, 153);">
<polygon points="100,100 50,0 50,0 0,100 "/>
</g></g>
        <g transform="translate(875,280) scale(0.35,0.35)"><g transform="" style="fill: rgb(248, 56, 153);">
<polygon points="99.999,49.999 99.998,49.999 49.999,0 0,49.999 -0.001,49.999 -0.001,50 0,50 49.999,99.999 99.998,50 99.999,50 
	99.998,50 "/>
</g></g>
        <g transform="translate(945,280) scale(0.35,0.35)"><g transform="" style="fill: rgb(248, 56, 153);">
<polygon points="100,100 0,50 0,50 100,0 "/>
</g></g>
        <g transform="translate(980,280) scale(0.35,0.35)"><g transform="" style="fill: rgb(248, 56, 153);">
<g>
	<path d="M100,34.375c0-9.505-3.354-17.611-10.059-24.316S75.131,0,65.625,0H0v100h100V34.375z"/>
</g>
</g></g>
        <g transform="translate(0,315) scale(0.35,0.35)"><g transform="" style="fill: rgb(248, 56, 153);">
<g>
	<path d="M100,0H0v65.625c0,9.506,3.353,17.611,10.059,24.316S24.87,100,34.375,100H100V0z"/>
</g>
</g></g>
        <g transform="translate(35,315) scale(0.35,0.35)"><g transform="" style="fill: rgb(248, 56, 153);">
<rect width="100" height="100"/>
</g></g>
        <g transform="translate(70,315) scale(0.35,0.35)"><g transform="" style="fill: rgb(248, 56, 153);">
<rect width="100" height="100"/>
</g></g>
        <g transform="translate(105,315) scale(0.35,0.35)"><g transform="" style="fill: rgb(248, 56, 153);">
<rect width="100" height="100"/>
</g></g>
        <g transform="translate(140,315) scale(0.35,0.35)"><g transform="" style="fill: rgb(248, 56, 153);">
<g>
	<path d="M100,34.375c0-9.505-3.354-17.611-10.059-24.316S75.131,0,65.625,0H0v100h100V34.375z"/>
</g>
</g></g>
        <g transform="translate(245,315) scale(0.35,0.35)"><g transform="" style="fill: rgb(248, 56, 153);">
<rect width="100" height="100"/>
</g></g>
        <g transform="translate(280,315) scale(0.35,0.35)"><g transform="" style="fill: rgb(248, 56, 153);">
<polygon points="0,100 100,50 100,50 0,0 "/>
</g></g>
        <g transform="translate(350,315) scale(0.35,0.35)"><g transform="" style="fill: rgb(248, 56, 153);">
<g>
	<path d="M100,34.375V0H34.375C24.87,0,16.764,3.353,10.059,10.059S0,24.87,0,34.375V100h100V34.375z"/>
</g>
</g></g>
        <g transform="translate(385,315) scale(0.35,0.35)"><g transform="" style="fill: rgb(248, 56, 153);">
<rect width="100" height="100"/>
</g></g>
        <g transform="translate(420,315) scale(0.35,0.35)"><g transform="" style="fill: rgb(248, 56, 153);">
<g>
	<path d="M100,0H0v100h65.625c9.506,0,17.611-3.354,24.316-10.059S100,75.131,100,65.625V0z"/>
</g>
</g></g>
        <g transform="translate(525,315) scale(0.35,0.35)"><g transform="" style="fill: rgb(248, 56, 153);">
<g>
	<path d="M100,34.375V0H34.375C24.87,0,16.764,3.353,10.059,10.059S0,24.87,0,34.375V100h100V34.375z"/>
</g>
</g></g>
        <g transform="translate(560,315) scale(0.35,0.35)"><g transform="" style="fill: rgb(248, 56, 153);">
<rect width="100" height="100"/>
</g></g>
        <g transform="translate(595,315) scale(0.35,0.35)"><g transform="" style="fill: rgb(248, 56, 153);">
<rect width="100" height="100"/>
</g></g>
        <g transform="translate(630,315) scale(0.35,0.35)"><g transform="" style="fill: rgb(248, 56, 153);">
<rect width="100" height="100"/>
</g></g>
        <g transform="translate(665,315) scale(0.35,0.35)"><g transform="" style="fill: rgb(248, 56, 153);">
<rect width="100" height="100"/>
</g></g>
        <g transform="translate(700,315) scale(0.35,0.35)"><g transform="" style="fill: rgb(248, 56, 153);">
<rect width="100" height="100"/>
</g></g>
        <g transform="translate(735,315) scale(0.35,0.35)"><g transform="" style="fill: rgb(248, 56, 153);">
<rect width="100" height="100"/>
</g></g>
        <g transform="translate(770,315) scale(0.35,0.35)"><g transform="" style="fill: rgb(248, 56, 153);">
<rect width="100" height="100"/>
</g></g>
        <g transform="translate(805,315) scale(0.35,0.35)"><g transform="" style="fill: rgb(248, 56, 153);">
<rect width="100" height="100"/>
</g></g>
        <g transform="translate(840,315) scale(0.35,0.35)"><g transform="" style="fill: rgb(248, 56, 153);">
<g>
	<path d="M100,34.375c0-9.505-3.354-17.611-10.059-24.316S75.131,0,65.625,0H0v100h100V34.375z"/>
</g>
</g></g>
        <g transform="translate(980,315) scale(0.35,0.35)"><g transform="" style="fill: rgb(248, 56, 153);">
<polygon points="0,-0.001 50,99.999 50,99.999 100,-0.001 "/>
</g></g>
        <g transform="translate(70,350) scale(0.35,0.35)"><g transform="" style="fill: rgb(248, 56, 153);">
<rect width="100" height="100"/>
</g></g>
        <g transform="translate(105,350) scale(0.35,0.35)"><g transform="" style="fill: rgb(248, 56, 153);">
<rect width="100" height="100"/>
</g></g>
        <g transform="translate(140,350) scale(0.35,0.35)"><g transform="" style="fill: rgb(248, 56, 153);">
<g>
	<path d="M100,0H0v100h65.625c9.506,0,17.611-3.354,24.316-10.059S100,75.131,100,65.625V0z"/>
</g>
</g></g>
        <g transform="translate(210,350) scale(0.35,0.35)"><g transform="" style="fill: rgb(248, 56, 153);">
<polygon points="100,100 0,50 0,50 100,0 "/>
</g></g>
        <g transform="translate(245,350) scale(0.35,0.35)"><g transform="" style="fill: rgb(248, 56, 153);">
<g>
	<path d="M100,0H0v100h65.625c9.506,0,17.611-3.354,24.316-10.059S100,75.131,100,65.625V0z"/>
</g>
</g></g>
        <g transform="translate(315,350) scale(0.35,0.35)"><g transform="" style="fill: rgb(248, 56, 153);">
<polygon points="100,100 0,50 0,50 100,0 "/>
</g></g>
        <g transform="translate(350,350) scale(0.35,0.35)"><g transform="" style="fill: rgb(248, 56, 153);">
<rect width="100" height="100"/>
</g></g>
        <g transform="translate(385,350) scale(0.35,0.35)"><g transform="" style="fill: rgb(248, 56, 153);">
<rect width="100" height="100"/>
</g></g>
        <g transform="translate(490,350) scale(0.35,0.35)"><g transform="" style="fill: rgb(248, 56, 153);">
<g>
	<path d="M100,34.375V0H34.375C24.87,0,16.764,3.353,10.059,10.059S0,24.87,0,34.375V100h100V34.375z"/>
</g>
</g></g>
        <g transform="translate(525,350) scale(0.35,0.35)"><g transform="" style="fill: rgb(248, 56, 153);">
<rect width="100" height="100"/>
</g></g>
        <g transform="translate(630,350) scale(0.35,0.35)"><g transform="" style="fill: rgb(248, 56, 153);">
<rect width="100" height="100"/>
</g></g>
        <g transform="translate(735,350) scale(0.35,0.35)"><g transform="" style="fill: rgb(248, 56, 153);">
<rect width="100" height="100"/>
</g></g>
        <g transform="translate(805,350) scale(0.35,0.35)"><g transform="" style="fill: rgb(248, 56, 153);">
<rect width="100" height="100"/>
</g></g>
        <g transform="translate(840,350) scale(0.35,0.35)"><g transform="" style="fill: rgb(248, 56, 153);">
<g>
	<path d="M100,0H0v100h65.625c9.506,0,17.611-3.354,24.316-10.059S100,75.131,100,65.625V0z"/>
</g>
</g></g>
        <g transform="translate(910,350) scale(0.35,0.35)"><g transform="" style="fill: rgb(248, 56, 153);">
<polygon points="100,100 0,50 0,50 100,0 "/>
</g></g>
        <g transform="translate(945,350) scale(0.35,0.35)"><g transform="" style="fill: rgb(248, 56, 153);">
<polygon points="0,100 100,50 100,50 0,0 "/>
</g></g>
        <g transform="translate(70,385) scale(0.35,0.35)"><g transform="" style="fill: rgb(248, 56, 153);">
<polygon points="0,-0.001 50,99.999 50,99.999 100,-0.001 "/>
</g></g>
        <g transform="translate(385,385) scale(0.35,0.35)"><g transform="" style="fill: rgb(248, 56, 153);">
<rect width="100" height="100"/>
</g></g>
        <g transform="translate(420,385) scale(0.35,0.35)"><g transform="" style="fill: rgb(248, 56, 153);">
<rect width="100" height="100"/>
</g></g>
        <g transform="translate(455,385) scale(0.35,0.35)"><g transform="" style="fill: rgb(248, 56, 153);">
<rect width="100" height="100"/>
</g></g>
        <g transform="translate(490,385) scale(0.35,0.35)"><g transform="" style="fill: rgb(248, 56, 153);">
<rect width="100" height="100"/>
</g></g>
        <g transform="translate(525,385) scale(0.35,0.35)"><g transform="" style="fill: rgb(248, 56, 153);">
<g>
	<path d="M100,0H0v100h65.625c9.506,0,17.611-3.354,24.316-10.059S100,75.131,100,65.625V0z"/>
</g>
</g></g>
        <g transform="translate(630,385) scale(0.35,0.35)"><g transform="" style="fill: rgb(248, 56, 153);">
<g>
	<path d="M100,0H0v65.625c0,9.506,3.353,17.611,10.059,24.316S24.87,100,34.375,100H100V0z"/>
</g>
</g></g>
        <g transform="translate(665,385) scale(0.35,0.35)"><g transform="" style="fill: rgb(248, 56, 153);">
<rect width="100" height="100"/>
</g></g>
        <g transform="translate(700,385) scale(0.35,0.35)"><g transform="" style="fill: rgb(248, 56, 153);">
<rect width="100" height="100"/>
</g></g>
        <g transform="translate(735,385) scale(0.35,0.35)"><g transform="" style="fill: rgb(248, 56, 153);">
<rect width="100" height="100"/>
</g></g>
        <g transform="translate(770,385) scale(0.35,0.35)"><g transform="" style="fill: rgb(248, 56, 153);">
<rect width="100" height="100"/>
</g></g>
        <g transform="translate(805,385) scale(0.35,0.35)"><g transform="" style="fill: rgb(248, 56, 153);">
<g>
	<path d="M100,0H0v100h65.625c9.506,0,17.611-3.354,24.316-10.059S100,75.131,100,65.625V0z"/>
</g>
</g></g>
        <g transform="translate(980,385) scale(0.35,0.35)"><g transform="" style="fill: rgb(248, 56, 153);">
<polygon points="99.999,49.999 99.998,49.999 49.999,0 0,49.999 -0.001,49.999 -0.001,50 0,50 49.999,99.999 99.998,50 99.999,50 
	99.998,50 "/>
</g></g>
        <g transform="translate(0,420) scale(0.35,0.35)"><g transform="" style="fill: rgb(248, 56, 153);">
<polygon points="99.999,49.999 99.998,49.999 49.999,0 0,49.999 -0.001,49.999 -0.001,50 0,50 49.999,99.999 99.998,50 99.999,50 
	99.998,50 "/>
</g></g>
        <g transform="translate(105,420) scale(0.35,0.35)"><g transform="" style="fill: rgb(248, 56, 153);">
<g>
	<path d="M100,34.375V0H34.375C24.87,0,16.764,3.353,10.059,10.059S0,24.87,0,34.375V100h100V34.375z"/>
</g>
</g></g>
        <g transform="translate(140,420) scale(0.35,0.35)"><g transform="" style="fill: rgb(248, 56, 153);">
<polygon points="0,100 100,50 100,50 0,0 "/>
</g></g>
        <g transform="translate(210,420) scale(0.35,0.35)"><g transform="" style="fill: rgb(248, 56, 153);">
<polygon points="99.999,49.999 99.998,49.999 49.999,0 0,49.999 -0.001,49.999 -0.001,50 0,50 49.999,99.999 99.998,50 99.999,50 
	99.998,50 "/>
</g></g>
        <g transform="translate(280,420) scale(0.35,0.35)"><g transform="" style="fill: rgb(248, 56, 153);">
<polygon points="100,100 50,0 50,0 0,100 "/>
</g></g>
        <g transform="translate(385,420) scale(0.35,0.35)"><g transform="" style="fill: rgb(248, 56, 153);">
<rect width="100" height="100"/>
</g></g>
        <g transform="translate(420,420) scale(0.35,0.35)"><g transform="" style="fill: rgb(248, 56, 153);">
<g>
	<path d="M100,0H0v100h65.625c9.506,0,17.611-3.354,24.316-10.059S100,75.131,100,65.625V0z"/>
</g>
</g></g>
        <g transform="translate(595,420) scale(0.35,0.35)"><g transform="" style="fill: rgb(248, 56, 153);">
<polygon points="100,100 50,0 50,0 0,100 "/>
</g></g>
        <g transform="translate(700,420) scale(0.35,0.35)"><g transform="" style="fill: rgb(248, 56, 153);">
<polygon points="0,-0.001 50,99.999 50,99.999 100,-0.001 "/>
</g></g>
        <g transform="translate(875,420) scale(0.35,0.35)"><g transform="" style="fill: rgb(248, 56, 153);">
<polygon points="100,100 0,50 0,50 100,0 "/>
</g></g>
        <g transform="translate(910,420) scale(0.35,0.35)"><g transform="" style="fill: rgb(248, 56, 153);">
<g>
	<path d="M100,34.375c0-9.505-3.354-17.611-10.059-24.316S75.131,0,65.625,0H0v100h100V34.375z"/>
</g>
</g></g>
        <g transform="translate(35,455) scale(0.35,0.35)"><g transform="" style="fill: rgb(248, 56, 153);">
<g>
	<path d="M100,34.375V0H34.375C24.87,0,16.764,3.353,10.059,10.059S0,24.87,0,34.375V100h100V34.375z"/>
</g>
</g></g>
        <g transform="translate(70,455) scale(0.35,0.35)"><g transform="" style="fill: rgb(248, 56, 153);">
<rect width="100" height="100"/>
</g></g>
        <g transform="translate(105,455) scale(0.35,0.35)"><g transform="" style="fill: rgb(248, 56, 153);">
<rect width="100" height="100"/>
</g></g>
        <g transform="translate(175,455) scale(0.35,0.35)"><g transform="" style="fill: rgb(248, 56, 153);">
<polygon points="100,100 50,0 50,0 0,100 "/>
</g></g>
        <g transform="translate(245,455) scale(0.35,0.35)"><g transform="" style="fill: rgb(248, 56, 153);">
<g>
	<path d="M100,34.375V0H34.375C24.87,0,16.764,3.353,10.059,10.059S0,24.87,0,34.375V100h100V34.375z"/>
</g>
</g></g>
        <g transform="translate(280,455) scale(0.35,0.35)"><g transform="" style="fill: rgb(248, 56, 153);">
<rect width="100" height="100"/>
</g></g>
        <g transform="translate(315,455) scale(0.35,0.35)"><g transform="" style="fill: rgb(248, 56, 153);">
<rect width="100" height="100"/>
</g></g>
        <g transform="translate(350,455) scale(0.35,0.35)"><g transform="" style="fill: rgb(248, 56, 153);">
<rect width="100" height="100"/>
</g></g>
        <g transform="translate(385,455) scale(0.35,0.35)"><g transform="" style="fill: rgb(248, 56, 153);">
<g>
	<path d="M100,0H0v100h65.625c9.506,0,17.611-3.354,24.316-10.059S100,75.131,100,65.625V0z"/>
</g>
</g></g>
        <g transform="translate(455,455) scale(0.35,0.35)"><g transform="" style="fill: rgb(248, 56, 153);">
<polygon points="99.999,49.999 99.998,49.999 49.999,0 0,49.999 -0.001,49.999 -0.001,50 0,50 49.999,99.999 99.998,50 99.999,50 
	99.998,50 "/>
</g></g>
        <g transform="translate(595,455) scale(0.35,0.35)"><g transform="" style="fill: rgb(248, 56, 153);">
<rect width="100" height="100"/>
</g></g>
        <g transform="translate(630,455) scale(0.35,0.35)"><g transform="" style="fill: rgb(248, 56, 153);">
<rect width="100" height="100"/>
</g></g>
        <g transform="translate(665,455) scale(0.35,0.35)"><g transform="" style="fill: rgb(248, 56, 153);">
<g>
	<path d="M100,34.375c0-9.505-3.354-17.611-10.059-24.316S75.131,0,65.625,0H0v100h100V34.375z"/>
</g>
</g></g>
        <g transform="translate(770,455) scale(0.35,0.35)"><g transform="" style="fill: rgb(248, 56, 153);">
<polygon points="99.999,49.999 99.998,49.999 49.999,0 0,49.999 -0.001,49.999 -0.001,50 0,50 49.999,99.999 99.998,50 99.999,50 
	99.998,50 "/>
</g></g>
        <g transform="translate(910,455) scale(0.35,0.35)"><g transform="" style="fill: rgb(248, 56, 153);">
<rect width="100" height="100"/>
</g></g>
        <g transform="translate(945,455) scale(0.35,0.35)"><g transform="" style="fill: rgb(248, 56, 153);">
<rect width="100" height="100"/>
</g></g>
        <g transform="translate(980,455) scale(0.35,0.35)"><g transform="" style="fill: rgb(248, 56, 153);">
<g>
	<path d="M100,34.375c0-9.505-3.354-17.611-10.059-24.316S75.131,0,65.625,0H0v100h100V34.375z"/>
</g>
</g></g>
        <g transform="translate(0,490) scale(0.35,0.35)"><g transform="" style="fill: rgb(248, 56, 153);">
<g>
	<path d="M100,34.375V0H34.375C24.87,0,16.764,3.353,10.059,10.059S0,24.87,0,34.375V100h100V34.375z"/>
</g>
</g></g>
        <g transform="translate(35,490) scale(0.35,0.35)"><g transform="" style="fill: rgb(248, 56, 153);">
<g>
	<path d="M100,0H0v100h65.625c9.506,0,17.611-3.354,24.316-10.059S100,75.131,100,65.625V0z"/>
</g>
</g></g>
        <g transform="translate(105,490) scale(0.35,0.35)"><g transform="" style="fill: rgb(248, 56, 153);">
<g>
	<path d="M100,0H0v65.625c0,9.506,3.353,17.611,10.059,24.316S24.87,100,34.375,100H100V0z"/>
</g>
</g></g>
        <g transform="translate(140,490) scale(0.35,0.35)"><g transform="" style="fill: rgb(248, 56, 153);">
<rect width="100" height="100"/>
</g></g>
        <g transform="translate(175,490) scale(0.35,0.35)"><g transform="" style="fill: rgb(248, 56, 153);">
<rect width="100" height="100"/>
</g></g>
        <g transform="translate(210,490) scale(0.35,0.35)"><g transform="" style="fill: rgb(248, 56, 153);">
<rect width="100" height="100"/>
</g></g>
        <g transform="translate(245,490) scale(0.35,0.35)"><g transform="" style="fill: rgb(248, 56, 153);">
<rect width="100" height="100"/>
</g></g>
        <g transform="translate(280,490) scale(0.35,0.35)"><g transform="" style="fill: rgb(248, 56, 153);">
<rect width="100" height="100"/>
</g></g>
        <g transform="translate(350,490) scale(0.35,0.35)"><g transform="" style="fill: rgb(248, 56, 153);">
<rect width="100" height="100"/>
</g></g>
        <g transform="translate(420,490) scale(0.35,0.35)"><g transform="" style="fill: rgb(248, 56, 153);">
<polygon points="99.999,49.999 99.998,49.999 49.999,0 0,49.999 -0.001,49.999 -0.001,50 0,50 49.999,99.999 99.998,50 99.999,50 
	99.998,50 "/>
</g></g>
        <g transform="translate(490,490) scale(0.35,0.35)"><g transform="" style="fill: rgb(248, 56, 153);">
<polygon points="99.999,49.999 99.998,49.999 49.999,0 0,49.999 -0.001,49.999 -0.001,50 0,50 49.999,99.999 99.998,50 99.999,50 
	99.998,50 "/>
</g></g>
        <g transform="translate(595,490) scale(0.35,0.35)"><g transform="" style="fill: rgb(248, 56, 153);">
<polygon points="0,-0.001 50,99.999 50,99.999 100,-0.001 "/>
</g></g>
        <g transform="translate(665,490) scale(0.35,0.35)"><g transform="" style="fill: rgb(248, 56, 153);">
<polygon points="0,-0.001 50,99.999 50,99.999 100,-0.001 "/>
</g></g>
        <g transform="translate(735,490) scale(0.35,0.35)"><g transform="" style="fill: rgb(248, 56, 153);">
<polygon points="99.999,49.999 99.998,49.999 49.999,0 0,49.999 -0.001,49.999 -0.001,50 0,50 49.999,99.999 99.998,50 99.999,50 
	99.998,50 "/>
</g></g>
        <g transform="translate(805,490) scale(0.35,0.35)"><g transform="" style="fill: rgb(248, 56, 153);">
<polygon points="100,100 0,50 0,50 100,0 "/>
</g></g>
        <g transform="translate(840,490) scale(0.35,0.35)"><g transform="" style="fill: rgb(248, 56, 153);">
<g>
	<path d="M100,34.375c0-9.505-3.354-17.611-10.059-24.316S75.131,0,65.625,0H0v100h100V34.375z"/>
</g>
</g></g>
        <g transform="translate(910,490) scale(0.35,0.35)"><g transform="" style="fill: rgb(248, 56, 153);">
<g>
	<path d="M100,0H0v65.625c0,9.506,3.353,17.611,10.059,24.316S24.87,100,34.375,100H100V0z"/>
</g>
</g></g>
        <g transform="translate(945,490) scale(0.35,0.35)"><g transform="" style="fill: rgb(248, 56, 153);">
<rect width="100" height="100"/>
</g></g>
        <g transform="translate(980,490) scale(0.35,0.35)"><g transform="" style="fill: rgb(248, 56, 153);">
<g>
	<path d="M100,0H0v100h65.625c9.506,0,17.611-3.354,24.316-10.059S100,75.131,100,65.625V0z"/>
</g>
</g></g>
        <g transform="translate(0,525) scale(0.35,0.35)"><g transform="" style="fill: rgb(248, 56, 153);">
<polygon points="0,-0.001 50,99.999 50,99.999 100,-0.001 "/>
</g></g>
        <g transform="translate(70,525) scale(0.35,0.35)"><g transform="" style="fill: rgb(248, 56, 153);">
<polygon points="99.999,49.999 99.998,49.999 49.999,0 0,49.999 -0.001,49.999 -0.001,50 0,50 49.999,99.999 99.998,50 99.999,50 
	99.998,50 "/>
</g></g>
        <g transform="translate(140,525) scale(0.35,0.35)"><g transform="" style="fill: rgb(248, 56, 153);">
<rect width="100" height="100"/>
</g></g>
        <g transform="translate(245,525) scale(0.35,0.35)"><g transform="" style="fill: rgb(248, 56, 153);">
<rect width="100" height="100"/>
</g></g>
        <g transform="translate(280,525) scale(0.35,0.35)"><g transform="" style="fill: rgb(248, 56, 153);">
<rect width="100" height="100"/>
</g></g>
        <g transform="translate(315,525) scale(0.35,0.35)"><g transform="" style="fill: rgb(248, 56, 153);">
<rect width="100" height="100"/>
</g></g>
        <g transform="translate(350,525) scale(0.35,0.35)"><g transform="" style="fill: rgb(248, 56, 153);">
<rect width="100" height="100"/>
</g></g>
        <g transform="translate(385,525) scale(0.35,0.35)"><g transform="" style="fill: rgb(248, 56, 153);">
<g>
	<path d="M100,34.375c0-9.505-3.354-17.611-10.059-24.316S75.131,0,65.625,0H0v100h100V34.375z"/>
</g>
</g></g>
        <g transform="translate(455,525) scale(0.35,0.35)"><g transform="" style="fill: rgb(248, 56, 153);">
<polygon points="99.999,49.999 99.998,49.999 49.999,0 0,49.999 -0.001,49.999 -0.001,50 0,50 49.999,99.999 99.998,50 99.999,50 
	99.998,50 "/>
</g></g>
        <g transform="translate(560,525) scale(0.35,0.35)"><g transform="" style="fill: rgb(248, 56, 153);">
<polygon points="99.999,49.999 99.998,49.999 49.999,0 0,49.999 -0.001,49.999 -0.001,50 0,50 49.999,99.999 99.998,50 99.999,50 
	99.998,50 "/>
</g></g>
        <g transform="translate(840,525) scale(0.35,0.35)"><g transform="" style="fill: rgb(248, 56, 153);">
<rect width="100" height="100"/>
</g></g>
        <g transform="translate(945,525) scale(0.35,0.35)"><g transform="" style="fill: rgb(248, 56, 153);">
<rect width="100" height="100"/>
</g></g>
        <g transform="translate(140,560) scale(0.35,0.35)"><g transform="" style="fill: rgb(248, 56, 153);">
<g>
	<path d="M100,0H0v65.625c0,9.506,3.353,17.611,10.059,24.316S24.87,100,34.375,100H100V0z"/>
</g>
</g></g>
        <g transform="translate(175,560) scale(0.35,0.35)"><g transform="" style="fill: rgb(248, 56, 153);">
<rect width="100" height="100"/>
</g></g>
        <g transform="translate(210,560) scale(0.35,0.35)"><g transform="" style="fill: rgb(248, 56, 153);">
<rect width="100" height="100"/>
</g></g>
        <g transform="translate(245,560) scale(0.35,0.35)"><g transform="" style="fill: rgb(248, 56, 153);">
<rect width="100" height="100"/>
</g></g>
        <g transform="translate(280,560) scale(0.35,0.35)"><g transform="" style="fill: rgb(248, 56, 153);">
<g>
	<path d="M100,0H0v100h65.625c9.506,0,17.611-3.354,24.316-10.059S100,75.131,100,65.625V0z"/>
</g>
</g></g>
        <g transform="translate(385,560) scale(0.35,0.35)"><g transform="" style="fill: rgb(248, 56, 153);">
<polygon points="0,-0.001 50,99.999 50,99.999 100,-0.001 "/>
</g></g>
        <g transform="translate(525,560) scale(0.35,0.35)"><g transform="" style="fill: rgb(248, 56, 153);">
<polygon points="100,100 50,0 50,0 0,100 "/>
</g></g>
        <g transform="translate(630,560) scale(0.35,0.35)"><g transform="" style="fill: rgb(248, 56, 153);">
<g>
	<path d="M100,34.375V0H34.375C24.87,0,16.764,3.353,10.059,10.059S0,24.87,0,34.375V100h100V34.375z"/>
</g>
</g></g>
        <g transform="translate(665,560) scale(0.35,0.35)"><g transform="" style="fill: rgb(248, 56, 153);">
<rect width="100" height="100"/>
</g></g>
        <g transform="translate(700,560) scale(0.35,0.35)"><g transform="" style="fill: rgb(248, 56, 153);">
<g>
	<path d="M100,34.375c0-9.505-3.354-17.611-10.059-24.316S75.131,0,65.625,0H0v100h100V34.375z"/>
</g>
</g></g>
        <g transform="translate(805,560) scale(0.35,0.35)"><g transform="" style="fill: rgb(248, 56, 153);">
<g>
	<path d="M100,34.375V0H34.375C24.87,0,16.764,3.353,10.059,10.059S0,24.87,0,34.375V100h100V34.375z"/>
</g>
</g></g>
        <g transform="translate(840,560) scale(0.35,0.35)"><g transform="" style="fill: rgb(248, 56, 153);">
<rect width="100" height="100"/>
</g></g>
        <g transform="translate(875,560) scale(0.35,0.35)"><g transform="" style="fill: rgb(248, 56, 153);">
<g>
	<path d="M100,34.375c0-9.505-3.354-17.611-10.059-24.316S75.131,0,65.625,0H0v100h100V34.375z"/>
</g>
</g></g>
        <g transform="translate(945,560) scale(0.35,0.35)"><g transform="" style="fill: rgb(248, 56, 153);">
<rect width="100" height="100"/>
</g></g>
        <g transform="translate(315,595) scale(0.35,0.35)"><g transform="" style="fill: rgb(248, 56, 153);">
<polygon points="100,100 0,50 0,50 100,0 "/>
</g></g>
        <g transform="translate(350,595) scale(0.35,0.35)"><g transform="" style="fill: rgb(248, 56, 153);">
<polygon points="0,100 100,50 100,50 0,0 "/>
</g></g>
        <g transform="translate(420,595) scale(0.35,0.35)"><g transform="" style="fill: rgb(248, 56, 153);">
<polygon points="100,100 0,50 0,50 100,0 "/>
</g></g>
        <g transform="translate(455,595) scale(0.35,0.35)"><g transform="" style="fill: rgb(248, 56, 153);">
<polygon points="0,100 100,50 100,50 0,0 "/>
</g></g>
        <g transform="translate(525,595) scale(0.35,0.35)"><g transform="" style="fill: rgb(248, 56, 153);">
<rect width="100" height="100"/>
</g></g>
        <g transform="translate(560,595) scale(0.35,0.35)"><g transform="" style="fill: rgb(248, 56, 153);">
<polygon points="0,100 100,50 100,50 0,0 "/>
</g></g>
        <g transform="translate(630,595) scale(0.35,0.35)"><g transform="" style="fill: rgb(248, 56, 153);">
<polygon points="0,-0.001 50,99.999 50,99.999 100,-0.001 "/>
</g></g>
        <g transform="translate(700,595) scale(0.35,0.35)"><g transform="" style="fill: rgb(248, 56, 153);">
<polygon points="0,-0.001 50,99.999 50,99.999 100,-0.001 "/>
</g></g>
        <g transform="translate(805,595) scale(0.35,0.35)"><g transform="" style="fill: rgb(248, 56, 153);">
<polygon points="0,-0.001 50,99.999 50,99.999 100,-0.001 "/>
</g></g>
        <g transform="translate(875,595) scale(0.35,0.35)"><g transform="" style="fill: rgb(248, 56, 153);">
<g>
	<path d="M100,0H0v65.625c0,9.506,3.353,17.611,10.059,24.316S24.87,100,34.375,100H100V0z"/>
</g>
</g></g>
        <g transform="translate(910,595) scale(0.35,0.35)"><g transform="" style="fill: rgb(248, 56, 153);">
<rect width="100" height="100"/>
</g></g>
        <g transform="translate(945,595) scale(0.35,0.35)"><g transform="" style="fill: rgb(248, 56, 153);">
<g>
	<path d="M100,0H0v100h65.625c9.506,0,17.611-3.354,24.316-10.059S100,75.131,100,65.625V0z"/>
</g>
</g></g>
        <g transform="translate(0,630) scale(0.35,0.35)"><g transform="" style="fill: rgb(248, 56, 153);">
<polygon points="99.999,49.999 99.998,49.999 49.999,0 0,49.999 -0.001,49.999 -0.001,50 0,50 49.999,99.999 99.998,50 99.999,50 
	99.998,50 "/>
</g></g>
        <g transform="translate(70,630) scale(0.35,0.35)"><g transform="" style="fill: rgb(248, 56, 153);">
<g>
	<path d="M100,34.375V0H34.375C24.87,0,16.764,3.353,10.059,10.059S0,24.87,0,34.375V100h100V34.375z"/>
</g>
</g></g>
        <g transform="translate(105,630) scale(0.35,0.35)"><g transform="" style="fill: rgb(248, 56, 153);">
<g>
	<path d="M100,34.375c0-9.505-3.354-17.611-10.059-24.316S75.131,0,65.625,0H0v100h100V34.375z"/>
</g>
</g></g>
        <g transform="translate(210,630) scale(0.35,0.35)"><g transform="" style="fill: rgb(248, 56, 153);">
<polygon points="99.999,49.999 99.998,49.999 49.999,0 0,49.999 -0.001,49.999 -0.001,50 0,50 49.999,99.999 99.998,50 99.999,50 
	99.998,50 "/>
</g></g>
        <g transform="translate(525,630) scale(0.35,0.35)"><g transform="" style="fill: rgb(248, 56, 153);">
<rect width="100" height="100"/>
</g></g>
        <g transform="translate(770,630) scale(0.35,0.35)"><g transform="" style="fill: rgb(248, 56, 153);">
<polygon points="100,100 50,0 50,0 0,100 "/>
</g></g>
        <g transform="translate(840,630) scale(0.35,0.35)"><g transform="" style="fill: rgb(248, 56, 153);">
<polygon points="100,100 50,0 50,0 0,100 "/>
</g></g>
        <g transform="translate(910,630) scale(0.35,0.35)"><g transform="" style="fill: rgb(248, 56, 153);">
<rect width="100" height="100"/>
</g></g>
        <g transform="translate(70,665) scale(0.35,0.35)"><g transform="" style="fill: rgb(248, 56, 153);">
<g>
	<path d="M100,0H0v65.625c0,9.506,3.353,17.611,10.059,24.316S24.87,100,34.375,100H100V0z"/>
</g>
</g></g>
        <g transform="translate(105,665) scale(0.35,0.35)"><g transform="" style="fill: rgb(248, 56, 153);">
<g>
	<path d="M100,0H0v100h65.625c9.506,0,17.611-3.354,24.316-10.059S100,75.131,100,65.625V0z"/>
</g>
</g></g>
        <g transform="translate(175,665) scale(0.35,0.35)"><g transform="" style="fill: rgb(248, 56, 153);">
<polygon points="99.999,49.999 99.998,49.999 49.999,0 0,49.999 -0.001,49.999 -0.001,50 0,50 49.999,99.999 99.998,50 99.999,50 
	99.998,50 "/>
</g></g>
        <g transform="translate(245,665) scale(0.35,0.35)"><g transform="" style="fill: rgb(248, 56, 153);">
<g>
	<path d="M100,34.375V0H34.375C24.87,0,16.764,3.353,10.059,10.059S0,24.87,0,34.375V100h100V34.375z"/>
</g>
</g></g>
        <g transform="translate(280,665) scale(0.35,0.35)"><g transform="" style="fill: rgb(248, 56, 153);">
<rect width="100" height="100"/>
</g></g>
        <g transform="translate(315,665) scale(0.35,0.35)"><g transform="" style="fill: rgb(248, 56, 153);">
<rect width="100" height="100"/>
</g></g>
        <g transform="translate(350,665) scale(0.35,0.35)"><g transform="" style="fill: rgb(248, 56, 153);">
<rect width="100" height="100"/>
</g></g>
        <g transform="translate(385,665) scale(0.35,0.35)"><g transform="" style="fill: rgb(248, 56, 153);">
<rect width="100" height="100"/>
</g></g>
        <g transform="translate(420,665) scale(0.35,0.35)"><g transform="" style="fill: rgb(248, 56, 153);">
<polygon points="0,100 100,50 100,50 0,0 "/>
</g></g>
        <g transform="translate(525,665) scale(0.35,0.35)"><g transform="" style="fill: rgb(248, 56, 153);">
<rect width="100" height="100"/>
</g></g>
        <g transform="translate(560,665) scale(0.35,0.35)"><g transform="" style="fill: rgb(248, 56, 153);">
<rect width="100" height="100"/>
</g></g>
        <g transform="translate(595,665) scale(0.35,0.35)"><g transform="" style="fill: rgb(248, 56, 153);">
<rect width="100" height="100"/>
</g></g>
        <g transform="translate(630,665) scale(0.35,0.35)"><g transform="" style="fill: rgb(248, 56, 153);">
<g>
	<path d="M100,34.375c0-9.505-3.354-17.611-10.059-24.316S75.131,0,65.625,0H0v100h100V34.375z"/>
</g>
</g></g>
        <g transform="translate(770,665) scale(0.35,0.35)"><g transform="" style="fill: rgb(248, 56, 153);">
<rect width="100" height="100"/>
</g></g>
        <g transform="translate(840,665) scale(0.35,0.35)"><g transform="" style="fill: rgb(248, 56, 153);">
<rect width="100" height="100"/>
</g></g>
        <g transform="translate(910,665) scale(0.35,0.35)"><g transform="" style="fill: rgb(248, 56, 153);">
<rect width="100" height="100"/>
</g></g>
        <g transform="translate(35,700) scale(0.35,0.35)"><g transform="" style="fill: rgb(248, 56, 153);">
<polygon points="99.999,49.999 99.998,49.999 49.999,0 0,49.999 -0.001,49.999 -0.001,50 0,50 49.999,99.999 99.998,50 99.999,50 
	99.998,50 "/>
</g></g>
        <g transform="translate(210,700) scale(0.35,0.35)"><g transform="" style="fill: rgb(248, 56, 153);">
<polygon points="100,100 0,50 0,50 100,0 "/>
</g></g>
        <g transform="translate(245,700) scale(0.35,0.35)"><g transform="" style="fill: rgb(248, 56, 153);">
<g>
	<path d="M100,0H0v100h65.625c9.506,0,17.611-3.354,24.316-10.059S100,75.131,100,65.625V0z"/>
</g>
</g></g>
        <g transform="translate(315,700) scale(0.35,0.35)"><g transform="" style="fill: rgb(248, 56, 153);">
<polygon points="0,-0.001 50,99.999 50,99.999 100,-0.001 "/>
</g></g>
        <g transform="translate(455,700) scale(0.35,0.35)"><g transform="" style="fill: rgb(248, 56, 153);">
<polygon points="100,100 50,0 50,0 0,100 "/>
</g></g>
        <g transform="translate(525,700) scale(0.35,0.35)"><g transform="" style="fill: rgb(248, 56, 153);">
<g>
	<path d="M100,0H0v65.625c0,9.506,3.353,17.611,10.059,24.316S24.87,100,34.375,100H100V0z"/>
</g>
</g></g>
        <g transform="translate(560,700) scale(0.35,0.35)"><g transform="" style="fill: rgb(248, 56, 153);">
<rect width="100" height="100"/>
</g></g>
        <g transform="translate(595,700) scale(0.35,0.35)"><g transform="" style="fill: rgb(248, 56, 153);">
<rect width="100" height="100"/>
</g></g>
        <g transform="translate(630,700) scale(0.35,0.35)"><g transform="" style="fill: rgb(248, 56, 153);">
<rect width="100" height="100"/>
</g></g>
        <g transform="translate(665,700) scale(0.35,0.35)"><g transform="" style="fill: rgb(248, 56, 153);">
<rect width="100" height="100"/>
</g></g>
        <g transform="translate(700,700) scale(0.35,0.35)"><g transform="" style="fill: rgb(248, 56, 153);">
<rect width="100" height="100"/>
</g></g>
        <g transform="translate(735,700) scale(0.35,0.35)"><g transform="" style="fill: rgb(248, 56, 153);">
<rect width="100" height="100"/>
</g></g>
        <g transform="translate(770,700) scale(0.35,0.35)"><g transform="" style="fill: rgb(248, 56, 153);">
<rect width="100" height="100"/>
</g></g>
        <g transform="translate(805,700) scale(0.35,0.35)"><g transform="" style="fill: rgb(248, 56, 153);">
<rect width="100" height="100"/>
</g></g>
        <g transform="translate(840,700) scale(0.35,0.35)"><g transform="" style="fill: rgb(248, 56, 153);">
<rect width="100" height="100"/>
</g></g>
        <g transform="translate(875,700) scale(0.35,0.35)"><g transform="" style="fill: rgb(248, 56, 153);">
<rect width="100" height="100"/>
</g></g>
        <g transform="translate(910,700) scale(0.35,0.35)"><g transform="" style="fill: rgb(248, 56, 153);">
<rect width="100" height="100"/>
</g></g>
        <g transform="translate(280,735) scale(0.35,0.35)"><g transform="" style="fill: rgb(248, 56, 153);">
<polygon points="100,100 50,0 50,0 0,100 "/>
</g></g>
        <g transform="translate(350,735) scale(0.35,0.35)"><g transform="" style="fill: rgb(248, 56, 153);">
<polygon points="100,100 50,0 50,0 0,100 "/>
</g></g>
        <g transform="translate(455,735) scale(0.35,0.35)"><g transform="" style="fill: rgb(248, 56, 153);">
<rect width="100" height="100"/>
</g></g>
        <g transform="translate(490,735) scale(0.35,0.35)"><g transform="" style="fill: rgb(248, 56, 153);">
<polygon points="0,100 100,50 100,50 0,0 "/>
</g></g>
        <g transform="translate(560,735) scale(0.35,0.35)"><g transform="" style="fill: rgb(248, 56, 153);">
<rect width="100" height="100"/>
</g></g>
        <g transform="translate(630,735) scale(0.35,0.35)"><g transform="" style="fill: rgb(248, 56, 153);">
<g>
	<path d="M100,0H0v65.625c0,9.506,3.353,17.611,10.059,24.316S24.87,100,34.375,100H100V0z"/>
</g>
</g></g>
        <g transform="translate(665,735) scale(0.35,0.35)"><g transform="" style="fill: rgb(248, 56, 153);">
<rect width="100" height="100"/>
</g></g>
        <g transform="translate(700,735) scale(0.35,0.35)"><g transform="" style="fill: rgb(248, 56, 153);">
<rect width="100" height="100"/>
</g></g>
        <g transform="translate(840,735) scale(0.35,0.35)"><g transform="" style="fill: rgb(248, 56, 153);">
<rect width="100" height="100"/>
</g></g>
        <g transform="translate(875,735) scale(0.35,0.35)"><g transform="" style="fill: rgb(248, 56, 153);">
<rect width="100" height="100"/>
</g></g>
        <g transform="translate(910,735) scale(0.35,0.35)"><g transform="" style="fill: rgb(248, 56, 153);">
<rect width="100" height="100"/>
</g></g>
        <g transform="translate(945,735) scale(0.35,0.35)"><g transform="" style="fill: rgb(248, 56, 153);">
<rect width="100" height="100"/>
</g></g>
        <g transform="translate(980,735) scale(0.35,0.35)"><g transform="" style="fill: rgb(248, 56, 153);">
<polygon points="0,100 100,50 100,50 0,0 "/>
</g></g>
        <g transform="translate(280,770) scale(0.35,0.35)"><g transform="" style="fill: rgb(248, 56, 153);">
<rect width="100" height="100"/>
</g></g>
        <g transform="translate(315,770) scale(0.35,0.35)"><g transform="" style="fill: rgb(248, 56, 153);">
<rect width="100" height="100"/>
</g></g>
        <g transform="translate(350,770) scale(0.35,0.35)"><g transform="" style="fill: rgb(248, 56, 153);">
<rect width="100" height="100"/>
</g></g>
        <g transform="translate(385,770) scale(0.35,0.35)"><g transform="" style="fill: rgb(248, 56, 153);">
<g>
	<path d="M100,34.375c0-9.505-3.354-17.611-10.059-24.316S75.131,0,65.625,0H0v100h100V34.375z"/>
</g>
</g></g>
        <g transform="translate(455,770) scale(0.35,0.35)"><g transform="" style="fill: rgb(248, 56, 153);">
<polygon points="0,-0.001 50,99.999 50,99.999 100,-0.001 "/>
</g></g>
        <g transform="translate(560,770) scale(0.35,0.35)"><g transform="" style="fill: rgb(248, 56, 153);">
<rect width="100" height="100"/>
</g></g>
        <g transform="translate(595,770) scale(0.35,0.35)"><g transform="" style="fill: rgb(248, 56, 153);">
<polygon points="0,100 100,50 100,50 0,0 "/>
</g></g>
        <g transform="translate(665,770) scale(0.35,0.35)"><g transform="" style="fill: rgb(248, 56, 153);">
<g>
	<path d="M100,0H0v65.625c0,9.506,3.353,17.611,10.059,24.316S24.87,100,34.375,100H100V0z"/>
</g>
</g></g>
        <g transform="translate(700,770) scale(0.35,0.35)"><g transform="" style="fill: rgb(248, 56, 153);">
<rect width="100" height="100"/>
</g></g>
        <g transform="translate(770,770) scale(0.35,0.35)"><g transform="" style="fill: rgb(248, 56, 153);">
<polygon points="99.999,49.999 99.998,49.999 49.999,0 0,49.999 -0.001,49.999 -0.001,50 0,50 49.999,99.999 99.998,50 99.999,50 
	99.998,50 "/>
</g></g>
        <g transform="translate(840,770) scale(0.35,0.35)"><g transform="" style="fill: rgb(248, 56, 153);">
<rect width="100" height="100"/>
</g></g>
        <g transform="translate(875,770) scale(0.35,0.35)"><g transform="" style="fill: rgb(248, 56, 153);">
<rect width="100" height="100"/>
</g></g>
        <g transform="translate(945,770) scale(0.35,0.35)"><g transform="" style="fill: rgb(248, 56, 153);">
<rect width="100" height="100"/>
</g></g>
        <g transform="translate(280,805) scale(0.35,0.35)"><g transform="" style="fill: rgb(248, 56, 153);">
<g>
	<path d="M100,0H0v65.625c0,9.506,3.353,17.611,10.059,24.316S24.87,100,34.375,100H100V0z"/>
</g>
</g></g>
        <g transform="translate(315,805) scale(0.35,0.35)"><g transform="" style="fill: rgb(248, 56, 153);">
<rect width="100" height="100"/>
</g></g>
        <g transform="translate(350,805) scale(0.35,0.35)"><g transform="" style="fill: rgb(248, 56, 153);">
<rect width="100" height="100"/>
</g></g>
        <g transform="translate(385,805) scale(0.35,0.35)"><g transform="" style="fill: rgb(248, 56, 153);">
<g>
	<path d="M100,0H0v100h65.625c9.506,0,17.611-3.354,24.316-10.059S100,75.131,100,65.625V0z"/>
</g>
</g></g>
        <g transform="translate(560,805) scale(0.35,0.35)"><g transform="" style="fill: rgb(248, 56, 153);">
<polygon points="0,-0.001 50,99.999 50,99.999 100,-0.001 "/>
</g></g>
        <g transform="translate(630,805) scale(0.35,0.35)"><g transform="" style="fill: rgb(248, 56, 153);">
<polygon points="99.999,49.999 99.998,49.999 49.999,0 0,49.999 -0.001,49.999 -0.001,50 0,50 49.999,99.999 99.998,50 99.999,50 
	99.998,50 "/>
</g></g>
        <g transform="translate(700,805) scale(0.35,0.35)"><g transform="" style="fill: rgb(248, 56, 153);">
<rect width="100" height="100"/>
</g></g>
        <g transform="translate(840,805) scale(0.35,0.35)"><g transform="" style="fill: rgb(248, 56, 153);">
<rect width="100" height="100"/>
</g></g>
        <g transform="translate(875,805) scale(0.35,0.35)"><g transform="" style="fill: rgb(248, 56, 153);">
<g>
	<path d="M100,0H0v100h65.625c9.506,0,17.611-3.354,24.316-10.059S100,75.131,100,65.625V0z"/>
</g>
</g></g>
        <g transform="translate(945,805) scale(0.35,0.35)"><g transform="" style="fill: rgb(248, 56, 153);">
<rect width="100" height="100"/>
</g></g>
        <g transform="translate(980,805) scale(0.35,0.35)"><g transform="" style="fill: rgb(248, 56, 153);">
<polygon points="0,100 100,50 100,50 0,0 "/>
</g></g>
        <g transform="translate(315,840) scale(0.35,0.35)"><g transform="" style="fill: rgb(248, 56, 153);">
<polygon points="0,-0.001 50,99.999 50,99.999 100,-0.001 "/>
</g></g>
        <g transform="translate(490,840) scale(0.35,0.35)"><g transform="" style="fill: rgb(248, 56, 153);">
<g>
	<path d="M100,34.375V0H34.375C24.87,0,16.764,3.353,10.059,10.059S0,24.87,0,34.375V100h100V34.375z"/>
</g>
</g></g>
        <g transform="translate(525,840) scale(0.35,0.35)"><g transform="" style="fill: rgb(248, 56, 153);">
<g>
	<path d="M100,34.375c0-9.505-3.354-17.611-10.059-24.316S75.131,0,65.625,0H0v100h100V34.375z"/>
</g>
</g></g>
        <g transform="translate(595,840) scale(0.35,0.35)"><g transform="" style="fill: rgb(248, 56, 153);">
<polygon points="99.999,49.999 99.998,49.999 49.999,0 0,49.999 -0.001,49.999 -0.001,50 0,50 49.999,99.999 99.998,50 99.999,50 
	99.998,50 "/>
</g></g>
        <g transform="translate(700,840) scale(0.35,0.35)"><g transform="" style="fill: rgb(248, 56, 153);">
<rect width="100" height="100"/>
</g></g>
        <g transform="translate(735,840) scale(0.35,0.35)"><g transform="" style="fill: rgb(248, 56, 153);">
<rect width="100" height="100"/>
</g></g>
        <g transform="translate(770,840) scale(0.35,0.35)"><g transform="" style="fill: rgb(248, 56, 153);">
<rect width="100" height="100"/>
</g></g>
        <g transform="translate(805,840) scale(0.35,0.35)"><g transform="" style="fill: rgb(248, 56, 153);">
<rect width="100" height="100"/>
</g></g>
        <g transform="translate(840,840) scale(0.35,0.35)"><g transform="" style="fill: rgb(248, 56, 153);">
<rect width="100" height="100"/>
</g></g>
        <g transform="translate(910,840) scale(0.35,0.35)"><g transform="" style="fill: rgb(248, 56, 153);">
<polygon points="100,100 0,50 0,50 100,0 "/>
</g></g>
        <g transform="translate(945,840) scale(0.35,0.35)"><g transform="" style="fill: rgb(248, 56, 153);">
<g>
	<path d="M100,0H0v100h65.625c9.506,0,17.611-3.354,24.316-10.059S100,75.131,100,65.625V0z"/>
</g>
</g></g>
        <g transform="translate(280,875) scale(0.35,0.35)"><g transform="" style="fill: rgb(248, 56, 153);">
<polygon points="100,100 50,0 50,0 0,100 "/>
</g></g>
        <g transform="translate(350,875) scale(0.35,0.35)"><g transform="" style="fill: rgb(248, 56, 153);">
<polygon points="99.999,49.999 99.998,49.999 49.999,0 0,49.999 -0.001,49.999 -0.001,50 0,50 49.999,99.999 99.998,50 99.999,50 
	99.998,50 "/>
</g></g>
        <g transform="translate(490,875) scale(0.35,0.35)"><g transform="" style="fill: rgb(248, 56, 153);">
<rect width="100" height="100"/>
</g></g>
        <g transform="translate(525,875) scale(0.35,0.35)"><g transform="" style="fill: rgb(248, 56, 153);">
<rect width="100" height="100"/>
</g></g>
        <g transform="translate(560,875) scale(0.35,0.35)"><g transform="" style="fill: rgb(248, 56, 153);">
<g>
	<path d="M100,34.375c0-9.505-3.354-17.611-10.059-24.316S75.131,0,65.625,0H0v100h100V34.375z"/>
</g>
</g></g>
        <g transform="translate(665,875) scale(0.35,0.35)"><g transform="" style="fill: rgb(248, 56, 153);">
<g>
	<path d="M100,34.375V0H34.375C24.87,0,16.764,3.353,10.059,10.059S0,24.87,0,34.375V100h100V34.375z"/>
</g>
</g></g>
        <g transform="translate(700,875) scale(0.35,0.35)"><g transform="" style="fill: rgb(248, 56, 153);">
<rect width="100" height="100"/>
</g></g>
        <g transform="translate(735,875) scale(0.35,0.35)"><g transform="" style="fill: rgb(248, 56, 153);">
<g>
	<path d="M100,0H0v100h65.625c9.506,0,17.611-3.354,24.316-10.059S100,75.131,100,65.625V0z"/>
</g>
</g></g>
        <g transform="translate(805,875) scale(0.35,0.35)"><g transform="" style="fill: rgb(248, 56, 153);">
<rect width="100" height="100"/>
</g></g>
        <g transform="translate(840,875) scale(0.35,0.35)"><g transform="" style="fill: rgb(248, 56, 153);">
<rect width="100" height="100"/>
</g></g>
        <g transform="translate(875,875) scale(0.35,0.35)"><g transform="" style="fill: rgb(248, 56, 153);">
<polygon points="0,100 100,50 100,50 0,0 "/>
</g></g>
        <g transform="translate(980,875) scale(0.35,0.35)"><g transform="" style="fill: rgb(248, 56, 153);">
<polygon points="100,100 50,0 50,0 0,100 "/>
</g></g>
        <g transform="translate(280,910) scale(0.35,0.35)"><g transform="" style="fill: rgb(248, 56, 153);">
<g>
	<path d="M100,0H0v65.625c0,9.506,3.353,17.611,10.059,24.316S24.87,100,34.375,100H100V0z"/>
</g>
</g></g>
        <g transform="translate(315,910) scale(0.35,0.35)"><g transform="" style="fill: rgb(248, 56, 153);">
<g>
	<path d="M100,34.375c0-9.505-3.354-17.611-10.059-24.316S75.131,0,65.625,0H0v100h100V34.375z"/>
</g>
</g></g>
        <g transform="translate(385,910) scale(0.35,0.35)"><g transform="" style="fill: rgb(248, 56, 153);">
<polygon points="100,100 50,0 50,0 0,100 "/>
</g></g>
        <g transform="translate(490,910) scale(0.35,0.35)"><g transform="" style="fill: rgb(248, 56, 153);">
<rect width="100" height="100"/>
</g></g>
        <g transform="translate(560,910) scale(0.35,0.35)"><g transform="" style="fill: rgb(248, 56, 153);">
<g>
	<path d="M100,0H0v65.625c0,9.506,3.353,17.611,10.059,24.316S24.87,100,34.375,100H100V0z"/>
</g>
</g></g>
        <g transform="translate(595,910) scale(0.35,0.35)"><g transform="" style="fill: rgb(248, 56, 153);">
<rect width="100" height="100"/>
</g></g>
        <g transform="translate(630,910) scale(0.35,0.35)"><g transform="" style="fill: rgb(248, 56, 153);">
<rect width="100" height="100"/>
</g></g>
        <g transform="translate(665,910) scale(0.35,0.35)"><g transform="" style="fill: rgb(248, 56, 153);">
<rect width="100" height="100"/>
</g></g>
        <g transform="translate(700,910) scale(0.35,0.35)"><g transform="" style="fill: rgb(248, 56, 153);">
<rect width="100" height="100"/>
</g></g>
        <g transform="translate(805,910) scale(0.35,0.35)"><g transform="" style="fill: rgb(248, 56, 153);">
<polygon points="0,-0.001 50,99.999 50,99.999 100,-0.001 "/>
</g></g>
        <g transform="translate(910,910) scale(0.35,0.35)"><g transform="" style="fill: rgb(248, 56, 153);">
<polygon points="99.999,49.999 99.998,49.999 49.999,0 0,49.999 -0.001,49.999 -0.001,50 0,50 49.999,99.999 99.998,50 99.999,50 
	99.998,50 "/>
</g></g>
        <g transform="translate(980,910) scale(0.35,0.35)"><g transform="" style="fill: rgb(248, 56, 153);">
<polygon points="0,-0.001 50,99.999 50,99.999 100,-0.001 "/>
</g></g>
        <g transform="translate(315,945) scale(0.35,0.35)"><g transform="" style="fill: rgb(248, 56, 153);">
<rect width="100" height="100"/>
</g></g>
        <g transform="translate(385,945) scale(0.35,0.35)"><g transform="" style="fill: rgb(248, 56, 153);">
<rect width="100" height="100"/>
</g></g>
        <g transform="translate(420,945) scale(0.35,0.35)"><g transform="" style="fill: rgb(248, 56, 153);">
<g>
	<path d="M100,34.375c0-9.505-3.354-17.611-10.059-24.316S75.131,0,65.625,0H0v100h100V34.375z"/>
</g>
</g></g>
        <g transform="translate(490,945) scale(0.35,0.35)"><g transform="" style="fill: rgb(248, 56, 153);">
<g>
	<path d="M100,0H0v65.625c0,9.506,3.353,17.611,10.059,24.316S24.87,100,34.375,100H100V0z"/>
</g>
</g></g>
        <g transform="translate(525,945) scale(0.35,0.35)"><g transform="" style="fill: rgb(248, 56, 153);">
<polygon points="0,100 100,50 100,50 0,0 "/>
</g></g>
        <g transform="translate(630,945) scale(0.35,0.35)"><g transform="" style="fill: rgb(248, 56, 153);">
<rect width="100" height="100"/>
</g></g>
        <g transform="translate(700,945) scale(0.35,0.35)"><g transform="" style="fill: rgb(248, 56, 153);">
<rect width="100" height="100"/>
</g></g>
        <g transform="translate(840,945) scale(0.35,0.35)"><g transform="" style="fill: rgb(248, 56, 153);">
<polygon points="100,100 0,50 0,50 100,0 "/>
</g></g>
        <g transform="translate(875,945) scale(0.35,0.35)"><g transform="" style="fill: rgb(248, 56, 153);">
<g>
	<path d="M100,34.375c0-9.505-3.354-17.611-10.059-24.316S75.131,0,65.625,0H0v100h100V34.375z"/>
</g>
</g></g>
        <g transform="translate(945,945) scale(0.35,0.35)"><g transform="" style="fill: rgb(248, 56, 153);">
<polygon points="100,100 50,0 50,0 0,100 "/>
</g></g>
        <g transform="translate(280,980) scale(0.35,0.35)"><g transform="" style="fill: rgb(248, 56, 153);">
<polygon points="100,100 0,50 0,50 100,0 "/>
</g></g>
        <g transform="translate(315,980) scale(0.35,0.35)"><g transform="" style="fill: rgb(248, 56, 153);">
<rect width="100" height="100"/>
</g></g>
        <g transform="translate(350,980) scale(0.35,0.35)"><g transform="" style="fill: rgb(248, 56, 153);">
<rect width="100" height="100"/>
</g></g>
        <g transform="translate(385,980) scale(0.35,0.35)"><g transform="" style="fill: rgb(248, 56, 153);">
<rect width="100" height="100"/>
</g></g>
        <g transform="translate(420,980) scale(0.35,0.35)"><g transform="" style="fill: rgb(248, 56, 153);">
<rect width="100" height="100"/>
</g></g>
        <g transform="translate(455,980) scale(0.35,0.35)"><g transform="" style="fill: rgb(248, 56, 153);">
<polygon points="0,100 100,50 100,50 0,0 "/>
</g></g>
        <g transform="translate(560,980) scale(0.35,0.35)"><g transform="" style="fill: rgb(248, 56, 153);">
<polygon points="100,100 0,50 0,50 100,0 "/>
</g></g>
        <g transform="translate(595,980) scale(0.35,0.35)"><g transform="" style="fill: rgb(248, 56, 153);">
<rect width="100" height="100"/>
</g></g>
        <g transform="translate(630,980) scale(0.35,0.35)"><g transform="" style="fill: rgb(248, 56, 153);">
<rect width="100" height="100"/>
</g></g>
        <g transform="translate(665,980) scale(0.35,0.35)"><g transform="" style="fill: rgb(248, 56, 153);">
<rect width="100" height="100"/>
</g></g>
        <g transform="translate(700,980) scale(0.35,0.35)"><g transform="" style="fill: rgb(248, 56, 153);">
<rect width="100" height="100"/>
</g></g>
        <g transform="translate(735,980) scale(0.35,0.35)"><g transform="" style="fill: rgb(248, 56, 153);">
<rect width="100" height="100"/>
</g></g>
        <g transform="translate(770,980) scale(0.35,0.35)"><g transform="" style="fill: rgb(248, 56, 153);">
<polygon points="0,100 100,50 100,50 0,0 "/>
</g></g>
        <g transform="translate(875,980) scale(0.35,0.35)"><g transform="" style="fill: rgb(248, 56, 153);">
<polygon points="0,-0.001 50,99.999 50,99.999 100,-0.001 "/>
</g></g>
        <g transform="translate(945,980) scale(0.35,0.35)"><g transform="" style="fill: rgb(248, 56, 153);">
<polygon points="0,-0.001 50,99.999 50,99.999 100,-0.001 "/>
</g></g>
        <g transform="translate(0,0) scale(2.45, 2.45)"><g transform="" style="fill: rgb(248, 56, 57);">
<g>
	<path style="fill:none;" d="M65.859,15.008H34.141c-4.082,0-7.869,1.258-10.979,3.398c-2.419,1.665-4.428,3.864-5.848,6.421
		C15.838,27.484,15,30.526,15,33.758v32.471c0,10.344,8.586,18.76,19.145,18.76L50,84.992l15.855-0.004
		C76.414,84.988,85,76.572,85,66.229V33.758C85,23.419,76.414,15.008,65.859,15.008z"/>
    <path d="M65.859,0.008H34.141h0C18.683,0.008,5.587,10.221,1.4,24.18c-0.433,1.444-0.771,2.928-1.006,4.445
		C0.135,30.299,0,32.013,0,33.758v32.471c0,18.619,15.32,33.76,34.141,33.76L50,99.992l15.859-0.004
		c18.82,0,34.141-15.141,34.141-33.76V33.758C100,15.148,84.68,0.008,65.859,0.008z M85,66.229c0,10.344-8.586,18.76-19.145,18.76
		L50,84.992l-15.855-0.004C23.586,84.988,15,76.572,15,66.229V33.758c0-3.231,0.838-6.273,2.313-8.931
		c1.42-2.557,3.429-4.756,5.848-6.421c3.11-2.141,6.897-3.398,10.979-3.398h31.719C76.414,15.008,85,23.419,85,33.758V66.229z"/>
</g>
</g></g>
        <g transform="translate(770,0) scale(2.45, 2.45)"><g transform="" style="fill: rgb(248, 56, 57);">
<g>
	<path style="fill:none;" d="M65.859,15.008H34.141c-4.082,0-7.869,1.258-10.979,3.398c-2.419,1.665-4.428,3.864-5.848,6.421
		C15.838,27.484,15,30.526,15,33.758v32.471c0,10.344,8.586,18.76,19.145,18.76L50,84.992l15.855-0.004
		C76.414,84.988,85,76.572,85,66.229V33.758C85,23.419,76.414,15.008,65.859,15.008z"/>
    <path d="M65.859,0.008H34.141h0C18.683,0.008,5.587,10.221,1.4,24.18c-0.433,1.444-0.771,2.928-1.006,4.445
		C0.135,30.299,0,32.013,0,33.758v32.471c0,18.619,15.32,33.76,34.141,33.76L50,99.992l15.859-0.004
		c18.82,0,34.141-15.141,34.141-33.76V33.758C100,15.148,84.68,0.008,65.859,0.008z M85,66.229c0,10.344-8.586,18.76-19.145,18.76
		L50,84.992l-15.855-0.004C23.586,84.988,15,76.572,15,66.229V33.758c0-3.231,0.838-6.273,2.313-8.931
		c1.42-2.557,3.429-4.756,5.848-6.421c3.11-2.141,6.897-3.398,10.979-3.398h31.719C76.414,15.008,85,23.419,85,33.758V66.229z"/>
</g>
</g></g>
        <g transform="translate(0,770) scale(2.45, 2.45)"><g transform="" style="fill: rgb(248, 56, 57);">
<g>
	<path style="fill:none;" d="M65.859,15.008H34.141c-4.082,0-7.869,1.258-10.979,3.398c-2.419,1.665-4.428,3.864-5.848,6.421
		C15.838,27.484,15,30.526,15,33.758v32.471c0,10.344,8.586,18.76,19.145,18.76L50,84.992l15.855-0.004
		C76.414,84.988,85,76.572,85,66.229V33.758C85,23.419,76.414,15.008,65.859,15.008z"/>
    <path d="M65.859,0.008H34.141h0C18.683,0.008,5.587,10.221,1.4,24.18c-0.433,1.444-0.771,2.928-1.006,4.445
		C0.135,30.299,0,32.013,0,33.758v32.471c0,18.619,15.32,33.76,34.141,33.76L50,99.992l15.859-0.004
		c18.82,0,34.141-15.141,34.141-33.76V33.758C100,15.148,84.68,0.008,65.859,0.008z M85,66.229c0,10.344-8.586,18.76-19.145,18.76
		L50,84.992l-15.855-0.004C23.586,84.988,15,76.572,15,66.229V33.758c0-3.231,0.838-6.273,2.313-8.931
		c1.42-2.557,3.429-4.756,5.848-6.421c3.11-2.141,6.897-3.398,10.979-3.398h31.719C76.414,15.008,85,23.419,85,33.758V66.229z"/>
</g>
</g></g>
        <g transform="translate(70,70) scale(1.05, 1.05)"><g transform="" style="fill: rgb(248, 151, 56);">
<g>
	<g id="XMLID_1_">
		<g>
			<path d="M27.351,100c-15.09,0-27.365-12.032-27.365-26.808V26.794c0-4.616,1.2-8.96,3.301-12.761
				c2.029-3.658,4.901-6.802,8.36-9.174C16.09,1.801,21.506,0,27.336,0h45.327c15.076,0,27.351,12.018,27.351,26.793v46.398
				c0,14.775-12.274,26.808-27.351,26.808H50H27.351z"/>
		</g>
        <g>
		</g>
	</g>
</g>
</g></g>
        <g transform="translate(840,70) scale(1.05, 1.05)"><g transform="" style="fill: rgb(248, 151, 56);">
<g>
	<g id="XMLID_1_">
		<g>
			<path d="M27.351,100c-15.09,0-27.365-12.032-27.365-26.808V26.794c0-4.616,1.2-8.96,3.301-12.761
				c2.029-3.658,4.901-6.802,8.36-9.174C16.09,1.801,21.506,0,27.336,0h45.327c15.076,0,27.351,12.018,27.351,26.793v46.398
				c0,14.775-12.274,26.808-27.351,26.808H50H27.351z"/>
		</g>
        <g>
		</g>
	</g>
</g>
</g></g>
        <g transform="translate(70,840) scale(1.05, 1.05)"><g transform="" style="fill: rgb(248, 151, 56);">
<g>
	<g id="XMLID_1_">
		<g>
			<path d="M27.351,100c-15.09,0-27.365-12.032-27.365-26.808V26.794c0-4.616,1.2-8.96,3.301-12.761
				c2.029-3.658,4.901-6.802,8.36-9.174C16.09,1.801,21.506,0,27.336,0h45.327c15.076,0,27.351,12.018,27.351,26.793v46.398
				c0,14.775-12.274,26.808-27.351,26.808H50H27.351z"/>
		</g>
        <g>
		</g>
	</g>
</g>
</g></g></g></svg>