<?xml version="1.0" encoding="UTF-8" standalone="no"?>
<!-- Created with Inkscape (http://www.inkscape.org/) -->

<svg
        version="1.1"
        id="svg3013"
        width="350"
        height="350"
        viewBox="0 0 350 350"
        sodipodi:docname="suanPan.svg"
        inkscape:version="1.1.2 (b8e25be833, 2022-02-05)"
        xmlns:inkscape="http://www.inkscape.org/namespaces/inkscape"
        xmlns:sodipodi="http://sodipodi.sourceforge.net/DTD/sodipodi-0.dtd"
        xmlns="http://www.w3.org/2000/svg"
        xmlns:svg="http://www.w3.org/2000/svg">
    <defs
            id="defs3017">
        <filter
                style="color-interpolation-filters:sRGB;"
                inkscape:label="Drop Shadow"
                id="filter3352"
                x="-0.027209167"
                y="-0.024263191"
                width="1.0619764"
                height="1.0552662">
            <feFlood
                    flood-opacity="0.498039"
                    flood-color="rgb(0,0,0)"
                    result="flood"
                    id="feFlood3342"/>
            <feComposite
                    in="flood"
                    in2="SourceGraphic"
                    operator="in"
                    result="composite1"
                    id="feComposite3344"/>
            <feGaussianBlur
                    in="composite1"
                    stdDeviation="3"
                    result="blur"
                    id="feGaussianBlur3346"/>
            <feOffset
                    dx="2"
                    dy="2"
                    result="offset"
                    id="feOffset3348"/>
            <feComposite
                    in="offset"
                    in2="offset"
                    operator="atop"
                    result="composite2"
                    id="feComposite3350"/>
        </filter>
        <filter
                style="color-interpolation-filters:sRGB;"
                inkscape:label="Feather"
                id="filter3404"
                x="-0.072557778"
                y="-0.064701842"
                width="1.1451156"
                height="1.1294037">
            <feGaussianBlur
                    stdDeviation="8"
                    result="blur"
                    id="feGaussianBlur3396"/>
            <feComposite
                    in="SourceGraphic"
                    in2="blur"
                    operator="atop"
                    result="composite1"
                    id="feComposite3398"/>
            <feComposite
                    in2="composite1"
                    operator="in"
                    result="composite2"
                    id="feComposite3400"/>
            <feComposite
                    in2="composite2"
                    operator="in"
                    result="composite3"
                    id="feComposite3402"/>
        </filter>
    </defs>
    <sodipodi:namedview
            id="namedview3015"
            pagecolor="#505050"
            bordercolor="#ffffff"
            borderopacity="1"
            inkscape:pageshadow="0"
            inkscape:pageopacity="0"
            inkscape:pagecheckerboard="1"
            showgrid="false"
            inkscape:zoom="3.6322115"
            inkscape:cx="189.00331"
            inkscape:cy="208"
            inkscape:window-width="3200"
            inkscape:window-height="1733"
            inkscape:window-x="-3849"
            inkscape:window-y="-1085"
            inkscape:window-maximized="1"
            inkscape:current-layer="g3019"/>
    <g
            inkscape:groupmode="layer"
            inkscape:label="Image"
            id="g3019">
        <path
                style="display:inline;fill:#000000;filter:url(#filter3352)"
                d="m 55.718705,323.09154 c -15.052445,-8.07484 2.073408,-21.13363 13.5373,-20.53602 17.687188,-2.99047 35.772075,-2.65368 53.413915,-5.57084 15.02713,-1.68251 22.0821,-17.2949 27.94623,-29.29677 7.91594,-13.21123 -12.2684,-26.87721 -16.12285,-8.79635 -6.05355,11.98826 -19.17218,14.40821 -29.26411,20.10547 -11.38908,-2.75452 -30.654664,18.1742 -33.958025,1.74052 1.489939,-14.17394 17.827785,-12.20589 26.535775,-17.53681 10.67701,-0.89282 33.64463,-16.73266 19.32074,-25.81154 -9.20887,2.03516 -27.92916,21.36735 -30.616835,3.04549 1.002505,-14.92183 18.894395,-21.95299 25.778855,-34.12682 6.81978,-11.85963 22.93967,-20.22672 19.39181,-35.68247 -13.07939,-3.8634 -28.33636,-2.02905 -41.23611,-8.06736 -7.113839,-5.53389 -24.796452,1.43075 -11.08385,7.98865 8.96371,8.56677 24.77972,9.03221 31.19659,19.62687 -4.15853,19.67972 -22.66653,-5.33857 -34.765324,0.41374 -2.065724,8.01568 1.432537,25.80711 -13.632783,17.55599 -12.303313,-9.31602 -10.774962,-26.54013 -14.761868,-40.07887 -5.942826,-11.80663 -5.220045,-27.46159 -3.42366,-39.60801 4.12216,-12.59894 3.59856,-28.618434 15.654865,-37.086104 12.662886,-1.75894 20.324933,13.803864 15.820625,23.396344 9.780929,8.85956 23.141405,9.01372 35.546805,11.74254 14.78242,0.86594 19.88603,21.0631 1.22757,17.1408 -5.83425,-1.12023 -32.264349,-5.49714 -15.98108,2.1876 10.68482,6.60888 24.08558,7.11152 35.59266,13.01551 15.9767,0.71489 15.92659,-25.39284 10.26513,-35.9105 -4.89252,-11.3154 -19.72453,-9.72319 -30.30125,-6.47962 -13.76381,4.9339 -26.034326,-5.29439 -26.952314,-19.309674 -4.486751,-12.32417 0.916372,-27.649152 12.450874,-33.040293 22.32127,-9.216142 47.13755,-4.984306 70.45745,-8.535808 12.86685,-4.733949 26.92984,17.654709 7.10927,17.023351 -20.81778,3.093919 -43.30606,-2.947315 -62.81471,6.979977 -13.73463,13.168143 8.63128,21.117417 19.58736,14.422193 10.32869,-4.3969 34.23182,-8.02542 32.29709,9.343884 -0.61105,14.88542 2.6076,30.87525 -5.14573,44.47942 -3.1724,12.63325 -3.87615,25.90462 -11.79101,36.24638 -1.08975,10.94734 -17.01949,24.39126 -9.34573,33.71161 11.49141,11.41165 29.25616,11.47104 44.49472,11.88786 12.9793,1.03293 25.06549,-3.52274 37.39099,-6.58525 12.35215,1.02849 29.06774,-15.9662 37.62644,-2.74412 -0.26757,8.54741 -1.19859,17.45921 -12.18664,19.61373 -9.87746,15.11259 17.3309,18.63567 27.6353,21.99799 7.45064,2.26059 29.12478,2.75101 26.42491,11.40408 -11.20834,4.32096 -21.20631,11.21035 -34.4056,5.59706 -14.05499,-2.01579 -29.3771,-5.85649 -39.10745,-16.78144 -3.49568,-12.44111 -22.0618,-19.07391 -17.40292,-0.40666 4.25965,11.82067 2.05447,30.86979 18.4874,33.76144 26.05338,6.26569 54.00031,-0.63433 79.43513,8.63162 5.77427,10.48944 -9.61987,18.33836 -18.32302,15.53295 -20.72587,-4.24701 -42.2512,-1.36926 -63.04821,-4.21858 -13.27967,1.62985 -26.69842,-0.45426 -40.14235,-1.61659 -28.32588,0.81736 -56.63767,2.40002 -84.96822,3.17664 -14.495991,2.67843 -28.797017,7.55977 -43.844155,6.05679 z M 192.61181,287.01665 c -2.91429,-10.84716 -2.04852,-36.92411 -17.83142,-33.36896 -6.16031,11.9908 -11.83836,26.44817 -13.75499,39.09131 7.81729,-0.71818 32.69521,6.82472 31.58641,-5.72235 z m 93.64749,-64.42029 c -4.77913,-10.50557 -8.95375,-29.05611 -24.62378,-22.33594 -10.67947,2.81165 -23.3142,7.30975 -32.95138,6.83312 -14.99327,2.81403 -30.5484,3.80996 -45.72725,2.39746 -7.37982,-3.42937 -25.03374,-14.81282 -7.28223,-16.61028 20.52228,-3.65004 41.18305,-6.03906 61.8757,-8.68437 5.98337,-2.79108 26.05594,-3.41134 21.14889,-11.86572 -27.99171,-3.791 -55.85053,4.2359 -83.84272,2.83388 -8.87136,-13.78479 15.79064,-15.32281 25.12913,-17.06133 23.77071,-6.205 48.51973,-3.60053 72.80396,-4.50888 16.56366,-5.52793 -4.64673,-10.52434 -11.74912,-7.9011 -17.19753,1.18824 -34.31313,-2.6048 -51.5334,-0.39401 -13.19442,-0.21924 -27.20102,9.01949 -39.72109,1.57328 -10.07052,-11.99586 1.72311,-27.84402 16.39239,-22.18032 12.52977,1.69599 23.14132,-3.72074 36.25434,-2.0726 11.86654,-2.08914 3.41553,-22.54223 17.68489,-26.118804 7.05492,-2.30846 27.74962,-16.373455 9.83817,-17.72635 -12.20542,-0.04539 -32.33399,-1.451988 -32.46743,15.26027 0.40928,8.781894 -17.55845,26.065544 -15.7566,7.757534 -1.4139,-19.917824 -3.83933,-40.405879 -0.36736,-60.155922 1.56385,-13.244307 21.67277,-23.130408 25.27332,-5.514241 2.15772,8.884171 -8.39789,21.290241 7.88062,20.500534 12.68003,3.544691 24.87385,-4.004832 36.96762,-2.62985 17.2824,3.729326 10.86713,24.561389 7.4558,36.223905 2.03565,17.906234 -19.44077,16.111834 -27.2478,25.718984 0.73668,13.44246 20.54409,11.84546 30.55825,10.51242 13.02812,5.52228 16.80425,24.91591 11.63132,37.53967 -4.01803,12.96481 -4.43732,25.35191 2.54672,37.50002 4.53658,8.20857 13.39573,22.57991 -3.39445,22.16372 -2.20608,0.11315 -4.94799,0.6259 -6.77651,-1.05508 z"
                id="path3121"/>
        <path
                style="display:inline;fill:#f83839;fill-opacity:1"
                d="m 286.2593,222.59636 c -4.77913,-10.50557 -8.95375,-29.05611 -24.62378,-22.33594 -10.67947,2.81165 -23.3142,7.30975 -32.95138,6.83312 -14.99327,2.81403 -30.5484,3.80996 -45.72725,2.39746 -7.37982,-3.42937 -25.03374,-14.81282 -7.28223,-16.61028 20.52228,-3.65004 41.18305,-6.03906 61.8757,-8.68437 5.98337,-2.79108 26.05594,-3.41134 21.14889,-11.86572 -27.99171,-3.791 -55.85053,4.2359 -83.84272,2.83388 -8.87136,-13.78479 15.79064,-15.32281 25.12913,-17.06133 23.77071,-6.205 48.51973,-3.60053 72.80396,-4.50888 16.56366,-5.52793 -4.64673,-10.52434 -11.74912,-7.9011 -17.19753,1.18824 -34.31313,-2.6048 -51.5334,-0.39401 -13.19442,-0.21924 -27.20102,9.01949 -39.72109,1.57328 -10.07052,-11.99586 1.72311,-27.84402 16.39239,-22.18032 12.52977,1.69599 23.14132,-3.72074 36.25434,-2.0726 11.86654,-2.08914 3.41553,-22.54223 17.68489,-26.118804 7.05492,-2.30846 27.74962,-16.373455 9.83817,-17.72635 -12.20542,-0.04539 -32.33399,-1.451988 -32.46743,15.26027 0.40928,8.781894 -17.55845,26.065544 -15.7566,7.757534 -1.4139,-19.917824 -3.83933,-40.405879 -0.36736,-60.155922 1.56385,-13.244307 21.67277,-23.130408 25.27332,-5.514241 2.15772,8.884171 -8.39789,21.290241 7.88062,20.500534 12.68003,3.544691 24.87385,-4.004832 36.96762,-2.62985 17.2824,3.729326 10.86713,24.561389 7.4558,36.223905 2.03565,17.906234 -19.44077,16.111834 -27.2478,25.718984 0.73668,13.44246 20.54409,11.84546 30.55825,10.51242 13.02812,5.52228 16.80425,24.91591 11.63132,37.53967 -4.01803,12.96481 -4.43732,25.35191 2.54672,37.50002 4.53658,8.20857 13.39573,22.57991 -3.39445,22.16372 -2.20608,0.11315 -4.94799,0.6259 -6.77651,-1.05508 z"
                id="path3376"/>
        <path
                id="path3338"
                style="display:inline;fill:#f83839;fill-opacity:1"
                d="m 55.718705,323.09154 c -15.052445,-8.07484 2.073408,-21.13363 13.5373,-20.53602 17.687188,-2.99047 35.772075,-2.65368 53.413915,-5.57084 15.02713,-1.68251 22.0821,-17.2949 27.94623,-29.29677 7.91594,-13.21123 -12.2684,-26.87721 -16.12285,-8.79635 -6.05355,11.98826 -19.17218,14.40821 -29.26411,20.10547 -11.38908,-2.75452 -30.654664,18.1742 -33.958025,1.74052 1.489939,-14.17394 17.827785,-12.20589 26.535775,-17.53681 10.67701,-0.89282 33.64463,-16.73266 19.32074,-25.81154 -9.20887,2.03516 -27.92916,21.36735 -30.616835,3.04549 1.002505,-14.92183 18.894395,-21.95299 25.778855,-34.12682 6.81978,-11.85963 22.93967,-20.22672 19.39181,-35.68247 -13.07939,-3.8634 -28.33636,-2.02905 -41.23611,-8.06736 -7.113839,-5.53389 -24.796452,1.43075 -11.08385,7.98865 8.96371,8.56677 24.77972,9.03221 31.19659,19.62687 -4.15853,19.67972 -22.66653,-5.33857 -34.765324,0.41374 -2.065724,8.01568 1.432537,25.80711 -13.632783,17.55599 -12.303313,-9.31602 -10.774962,-26.54013 -14.761868,-40.07887 -5.942826,-11.80663 -5.220045,-27.46159 -3.42366,-39.60801 4.12216,-12.59894 3.59856,-28.618434 15.654865,-37.086104 12.662886,-1.75894 20.324933,13.803864 15.820625,23.396344 9.780929,8.85956 23.141405,9.01372 35.546805,11.74254 14.78242,0.86594 19.88603,21.0631 1.22757,17.1408 -5.83425,-1.12023 -32.264349,-5.49714 -15.98108,2.1876 10.68482,6.60888 24.08558,7.11152 35.59266,13.01551 15.9767,0.71489 15.92659,-25.39284 10.26513,-35.9105 -4.89252,-11.3154 -19.72453,-9.72319 -30.30125,-6.47962 -13.76381,4.9339 -26.034326,-5.29439 -26.952314,-19.309674 -4.486751,-12.32417 0.916372,-27.649152 12.450874,-33.040293 22.32127,-9.216142 47.13755,-4.984306 70.45745,-8.535808 12.86685,-4.733949 26.92984,17.654709 7.10927,17.023351 -20.81778,3.093919 -43.30606,-2.947315 -62.81471,6.979977 -13.73463,13.168143 8.63128,21.117417 19.58736,14.422193 10.32869,-4.3969 34.23182,-8.02542 32.29709,9.343884 -0.61105,14.88542 2.6076,30.87525 -5.14573,44.47942 -3.1724,12.63325 -3.87615,25.90462 -11.79101,36.24638 -1.08975,10.94734 -17.01949,24.39126 -9.34573,33.71161 11.49141,11.41165 29.25616,11.47104 44.49472,11.88786 12.9793,1.03293 25.06549,-3.52274 37.39099,-6.58525 12.35215,1.02849 29.06774,-15.9662 37.62644,-2.74412 -0.26757,8.54741 -1.19859,17.45921 -12.18664,19.61373 -9.87746,15.11259 17.3309,18.63567 27.6353,21.99799 7.45064,2.26059 29.12478,2.75101 26.42491,11.40408 -11.20834,4.32096 -21.20631,11.21035 -34.4056,5.59706 -14.05499,-2.01579 -29.3771,-5.85649 -39.10745,-16.78144 -3.49568,-12.44111 -22.0618,-19.07391 -17.40292,-0.40666 4.25965,11.82067 2.05447,30.86979 18.4874,33.76144 26.05338,6.26569 54.00031,-0.63433 79.43513,8.63162 5.77427,10.48944 -9.61987,18.33836 -18.32302,15.53295 -20.72587,-4.24701 -42.2512,-1.36926 -63.04821,-4.21858 -13.27967,1.62985 -26.69842,-0.45426 -40.14235,-1.61659 -28.32588,0.81736 -56.63767,2.40002 -84.96822,3.17664 -14.495991,2.67843 -28.797017,7.55977 -43.844155,6.05679 z M 192.61181,287.01665 c -2.91429,-10.84716 -2.04852,-36.92411 -17.83142,-33.36896 -6.16031,11.9908 -11.83836,26.44817 -13.75499,39.09131 7.81729,-0.71818 32.69521,6.82472 31.58641,-5.72235 z"/>
        <path
                style="fill:#ffffff;fill-opacity:0.666667;filter:url(#filter3404)"
                d="m 55.718705,323.09154 c -15.052445,-8.07484 2.073408,-21.13363 13.5373,-20.53602 17.687188,-2.99047 35.772075,-2.65368 53.413915,-5.57084 15.02713,-1.68251 22.0821,-17.2949 27.94623,-29.29677 7.91594,-13.21123 -12.2684,-26.87721 -16.12285,-8.79635 -6.05355,11.98826 -19.17218,14.40821 -29.26411,20.10547 -11.38908,-2.75452 -30.654664,18.1742 -33.958025,1.74052 1.489939,-14.17394 17.827785,-12.20589 26.535775,-17.53681 10.67701,-0.89282 33.64463,-16.73266 19.32074,-25.81154 -9.20887,2.03516 -27.92916,21.36735 -30.616835,3.04549 1.002505,-14.92183 18.894395,-21.95299 25.778855,-34.12682 6.81978,-11.85963 22.93967,-20.22672 19.39181,-35.68247 -13.07939,-3.8634 -28.33636,-2.02905 -41.23611,-8.06736 -7.113839,-5.53389 -24.796452,1.43075 -11.08385,7.98865 8.96371,8.56677 24.77972,9.03221 31.19659,19.62687 -4.15853,19.67972 -22.66653,-5.33857 -34.765324,0.41374 -2.065724,8.01568 1.432537,25.80711 -13.632783,17.55599 -12.303313,-9.31602 -10.774962,-26.54013 -14.761868,-40.07887 -5.942826,-11.80663 -5.220045,-27.46159 -3.42366,-39.60801 4.12216,-12.59894 3.59856,-28.618434 15.654865,-37.086104 12.662886,-1.75894 20.324933,13.803864 15.820625,23.396344 9.780929,8.85956 23.141405,9.01372 35.546805,11.74254 14.78242,0.86594 19.88603,21.0631 1.22757,17.1408 -5.83425,-1.12023 -32.264349,-5.49714 -15.98108,2.1876 10.68482,6.60888 24.08558,7.11152 35.59266,13.01551 15.9767,0.71489 15.92659,-25.39284 10.26513,-35.9105 -4.89252,-11.3154 -19.72453,-9.72319 -30.30125,-6.47962 -13.76381,4.9339 -26.034326,-5.29439 -26.952314,-19.309674 -4.486751,-12.32417 0.916372,-27.649152 12.450874,-33.040293 22.32127,-9.216142 47.13755,-4.984306 70.45745,-8.535808 12.86685,-4.733949 26.92984,17.654709 7.10927,17.023351 -20.81778,3.093919 -43.30606,-2.947315 -62.81471,6.979977 -13.73463,13.168143 8.63128,21.117417 19.58736,14.422193 10.32869,-4.3969 34.23182,-8.02542 32.29709,9.343884 -0.61105,14.88542 2.6076,30.87525 -5.14573,44.47942 -3.1724,12.63325 -3.87615,25.90462 -11.79101,36.24638 -1.08975,10.94734 -17.01949,24.39126 -9.34573,33.71161 11.49141,11.41165 29.25616,11.47104 44.49472,11.88786 12.9793,1.03293 25.06549,-3.52274 37.39099,-6.58525 12.35215,1.02849 29.06774,-15.9662 37.62644,-2.74412 -0.26757,8.54741 -1.19859,17.45921 -12.18664,19.61373 -9.87746,15.11259 17.3309,18.63567 27.6353,21.99799 7.45064,2.26059 29.12478,2.75101 26.42491,11.40408 -11.20834,4.32096 -21.20631,11.21035 -34.4056,5.59706 -14.05499,-2.01579 -29.3771,-5.85649 -39.10745,-16.78144 -3.49568,-12.44111 -22.0618,-19.07391 -17.40292,-0.40666 4.25965,11.82067 2.05447,30.86979 18.4874,33.76144 26.05338,6.26569 54.00031,-0.63433 79.43513,8.63162 5.77427,10.48944 -9.61987,18.33836 -18.32302,15.53295 -20.72587,-4.24701 -42.2512,-1.36926 -63.04821,-4.21858 -13.27967,1.62985 -26.69842,-0.45426 -40.14235,-1.61659 -28.32588,0.81736 -56.63767,2.40002 -84.96822,3.17664 -14.495991,2.67843 -28.797017,7.55977 -43.844155,6.05679 z M 192.61181,287.01665 c -2.91429,-10.84716 -2.04852,-36.92411 -17.83142,-33.36896 -6.16031,11.9908 -11.83836,26.44817 -13.75499,39.09131 7.81729,-0.71818 32.69521,6.82472 31.58641,-5.72235 z m 93.64749,-64.42029 c -4.77913,-10.50557 -8.95375,-29.05611 -24.62378,-22.33594 -10.67947,2.81165 -23.3142,7.30975 -32.95138,6.83312 -14.99327,2.81403 -30.5484,3.80996 -45.72725,2.39746 -7.37982,-3.42937 -25.03374,-14.81282 -7.28223,-16.61028 20.52228,-3.65004 41.18305,-6.03906 61.8757,-8.68437 5.98337,-2.79108 26.05594,-3.41134 21.14889,-11.86572 -27.99171,-3.791 -55.85053,4.2359 -83.84272,2.83388 -8.87136,-13.78479 15.79064,-15.32281 25.12913,-17.06133 23.77071,-6.205 48.51973,-3.60053 72.80396,-4.50888 16.56366,-5.52793 -4.64673,-10.52434 -11.74912,-7.9011 -17.19753,1.18824 -34.31313,-2.6048 -51.5334,-0.39401 -13.19442,-0.21924 -27.20102,9.01949 -39.72109,1.57328 -10.07052,-11.99586 1.72311,-27.84402 16.39239,-22.18032 12.52977,1.69599 23.14132,-3.72074 36.25434,-2.0726 11.86654,-2.08914 3.41553,-22.54223 17.68489,-26.118804 7.05492,-2.30846 27.74962,-16.373455 9.83817,-17.72635 -12.20542,-0.04539 -32.33399,-1.451988 -32.46743,15.26027 0.40928,8.781894 -17.55845,26.065544 -15.7566,7.757534 -1.4139,-19.917824 -3.83933,-40.405879 -0.36736,-60.155922 1.56385,-13.244307 21.67277,-23.130408 25.27332,-5.514241 2.15772,8.884171 -8.39789,21.290241 7.88062,20.500534 12.68003,3.544691 24.87385,-4.004832 36.96762,-2.62985 17.2824,3.729326 10.86713,24.561389 7.4558,36.223905 2.03565,17.906234 -19.44077,16.111834 -27.2478,25.718984 0.73668,13.44246 20.54409,11.84546 30.55825,10.51242 13.02812,5.52228 16.80425,24.91591 11.63132,37.53967 -4.01803,12.96481 -4.43732,25.35191 2.54672,37.50002 4.53658,8.20857 13.39573,22.57991 -3.39445,22.16372 -2.20608,0.11315 -4.94799,0.6259 -6.77651,-1.05508 z"
                id="path3340"/>
    </g>
</svg>
